<svg width="100" height="69" viewBox="0 0 260 69" fill="none" xmlns="http://www.w3.org/2000/svg">
<g clip-path="url(#clip0_167_128)">
<path d="M34.3673 69.0001C15.9227 69.1644 -0.444943 53.9012 0.00770731 33.661C0.433731 14.7167 16.0483 -0.412773 35.1547 0.00770207C53.4737 0.412887 68.7421 15.3703 68.7193 34.5631C68.6926 54.2108 52.6901 69.1415 34.3635 69.0001H34.3673Z" fill="white"/>
<path opacity="0.97" d="M180.425 40.7785C179.999 41.1913 179.66 41.5353 179.307 41.8602C177.8 43.2593 176.028 43.997 173.974 44.0888C171.802 44.1881 169.725 43.8632 167.789 42.8235C165.328 41.5009 163.654 39.475 162.68 36.8795C161.307 33.2214 161.318 29.5365 162.745 25.9013C164.517 21.3869 168.572 18.7417 173.399 18.845C175.324 18.887 177.176 19.2425 178.884 20.1675C181.421 21.5398 182.901 23.6804 183.418 26.5091C183.525 27.0824 183.494 27.113 182.932 27.1169C181.912 27.1207 180.893 27.1092 179.869 27.1245C179.55 27.1283 179.352 27.0748 179.287 26.7078C178.861 24.2691 176.811 22.7477 174.343 22.3961C173.464 22.2699 172.585 22.2776 171.714 22.4534C169.702 22.8586 168.23 24.0168 167.249 25.8057C166.115 27.8699 165.807 30.1099 165.951 32.4263C166.043 33.898 166.347 35.3276 166.994 36.6693C167.971 38.6952 169.481 40.0751 171.726 40.4994C173.179 40.7747 174.635 40.7211 176.043 40.2089C178.302 39.3794 179.428 37.644 179.793 35.3429C179.995 34.0662 179.972 34.0623 178.706 34.0623C177.176 34.0623 175.647 34.0623 174.114 34.0623C173.536 34.0623 173.532 34.0547 173.529 33.5043C173.525 32.8047 173.529 32.1052 173.529 31.4095C173.529 30.7444 173.559 30.817 174.152 30.817C177.142 30.817 180.136 30.817 183.126 30.817C183.148 30.817 183.171 30.817 183.194 30.817C183.746 30.8285 183.753 30.8285 183.757 31.4095C183.761 32.2696 183.757 33.1335 183.757 33.9935C183.757 36.9292 183.757 39.8649 183.757 42.8006C183.757 43.6339 183.848 43.523 183 43.5307C182.536 43.5345 182.072 43.5307 181.608 43.5307C181.049 43.5307 181.045 43.5269 180.923 43.0032C180.76 42.3037 180.604 41.6041 180.413 40.7823L180.425 40.7785Z" fill="white"/>
<path opacity="0.97" d="M89.9519 31.5509C89.9861 28.7337 90.5681 26.123 92.1048 23.8027C94.3719 20.3777 97.6241 18.8182 101.668 18.8602C103.935 18.8831 106.072 19.4183 107.974 20.7218C110.021 22.1246 111.188 24.0894 111.599 26.5243C111.694 27.0824 111.656 27.1206 111.093 27.1245C110.028 27.1283 108.959 27.1092 107.894 27.1359C107.548 27.1436 107.381 27.0174 107.312 26.6963C107.29 26.5817 107.24 26.4746 107.202 26.3676C106.278 23.7263 104.368 22.3387 101.584 22.3234C98.5827 22.3081 96.4602 23.7071 95.2049 26.4249C94.2236 28.5579 94.0486 30.817 94.2844 33.122C94.4328 34.5439 94.8208 35.9047 95.513 37.1662C97.1753 40.1898 100.234 41.1072 103.09 40.4421C104.566 40.098 105.662 39.1959 106.445 37.9154C106.997 37.0133 107.328 36.0232 107.476 34.9721C107.567 34.326 107.575 34.3261 108.187 34.3261C109.207 34.3261 110.23 34.3337 111.249 34.3184C111.584 34.3146 111.687 34.4216 111.66 34.7656C111.325 39.0774 108.579 43.049 103.611 43.9167C100.298 44.4977 97.1905 43.9205 94.4822 41.799C92.5765 40.3044 91.3631 38.3244 90.629 36.0309C90.1573 34.5554 89.9785 33.034 89.9519 31.5547V31.5509Z" fill="white"/>
<path opacity="0.97" d="M229.094 32.8926C230.566 31.463 232.023 30.0678 233.461 28.6497C234.206 27.9157 234.929 27.1589 235.648 26.402C235.869 26.1689 236.105 26.0504 236.435 26.0542C237.801 26.0695 239.17 26.0618 240.563 26.0618C240.589 26.337 240.369 26.4326 240.239 26.5626C238.337 28.405 236.428 30.2398 234.518 32.0784C234.227 32.3588 234.196 32.6735 234.427 33.0226C236.618 36.3405 238.809 39.6546 240.996 42.9726C241.095 43.1217 241.232 43.2554 241.266 43.5307H240.038C239.087 43.5307 238.136 43.5116 237.185 43.5383C236.785 43.5498 236.569 43.4083 236.359 43.072C234.83 40.5988 233.282 38.1448 231.738 35.6831C231.627 35.5072 231.513 35.3352 231.357 35.0982C230.623 35.813 229.912 36.5087 229.204 37.2044C229.03 37.3764 229.098 37.5981 229.098 37.8007C229.094 39.4559 229.098 41.1072 229.098 42.7623C229.098 42.9038 229.09 43.0414 229.098 43.1828C229.109 43.4045 229.045 43.5345 228.794 43.5307C227.702 43.523 226.614 43.5268 225.522 43.5307C225.317 43.5307 225.23 43.4313 225.233 43.2325C225.237 43.0681 225.233 42.9076 225.233 42.7432C225.233 35.2397 225.233 27.7399 225.233 20.2363C225.233 20.0949 225.241 19.9573 225.233 19.8159C225.214 19.5559 225.313 19.4374 225.591 19.4413C226.633 19.4527 227.679 19.4489 228.721 19.4413C228.972 19.4413 229.121 19.5062 229.098 19.7929C229.087 19.9535 229.098 20.1178 229.098 20.2822C229.098 24.2653 229.098 28.2483 229.098 32.2352C229.098 32.4645 229.098 32.6939 229.098 32.8926H229.094Z" fill="white"/>
<path opacity="0.97" d="M146.655 28.4662C147.499 27.4608 148.382 26.6161 149.55 26.1383C151.699 25.2591 153.833 25.3776 155.833 26.532C157.503 27.4991 158.161 29.1313 158.237 31.0005C158.291 32.3269 158.253 33.6571 158.253 34.9835C158.253 37.6402 158.253 40.2968 158.253 42.9496C158.253 43.5192 158.245 43.523 157.697 43.5268C156.792 43.5307 155.887 43.5307 154.985 43.5268C154.403 43.5268 154.396 43.5192 154.396 42.8999C154.396 39.5935 154.396 36.2832 154.396 32.9767C154.396 32.3001 154.373 31.6274 154.209 30.9661C153.859 29.5479 152.882 28.7681 151.429 28.6764C148.458 28.4853 146.875 30.7214 146.849 33.0685C146.815 36.2373 146.837 39.4062 146.837 42.575C146.837 42.6897 146.837 42.8082 146.837 42.9229C146.837 43.5612 146.883 43.5306 146.236 43.5306C145.354 43.5306 144.475 43.5306 143.593 43.5306C142.973 43.5306 142.969 43.5268 142.969 42.8694C142.969 41.5429 142.969 40.2127 142.969 38.8863V27.006C142.969 26.8645 142.969 26.7269 142.969 26.5855C142.98 26.0771 142.98 26.0695 143.456 26.0656C144.361 26.058 145.266 26.0771 146.168 26.058C146.522 26.0503 146.67 26.1574 146.655 26.532C146.632 27.178 146.647 27.824 146.647 28.47L146.655 28.4662Z" fill="white"/>
<path opacity="0.97" d="M222.042 31.9255C220.798 31.9255 219.646 31.9179 218.489 31.9294C218.155 31.9294 218.147 31.7191 218.09 31.4821C217.82 30.3813 217.211 29.5365 216.165 29.0625C214.419 28.2712 211.346 28.4318 210.178 31.226C209.185 33.5998 209.14 36.0424 210.186 38.42C211.38 41.1378 214.161 41.3557 215.831 40.5644C217.109 39.9604 217.736 38.8519 218.075 37.537C218.223 36.9636 218.212 36.956 218.775 36.956C219.836 36.956 220.901 36.956 221.989 36.956C221.981 37.6517 221.776 38.2441 221.586 38.8366C220.612 41.8411 218.326 43.6644 215.214 43.9511C213.978 44.0658 212.757 44.0276 211.559 43.7103C208.999 43.0299 207.223 41.4245 206.31 38.9513C205.218 35.985 205.313 32.992 206.622 30.1175C207.888 27.3271 210.193 25.9204 213.187 25.6452C214.937 25.4846 216.66 25.6681 218.276 26.4326C220.547 27.5106 221.761 29.3262 222.038 31.9255H222.042Z" fill="white"/>
<path opacity="0.97" d="M138.853 34.846C138.853 37.4759 138.853 40.1058 138.853 42.7318C138.853 42.8962 138.849 43.0567 138.853 43.2211C138.861 43.4199 138.785 43.5269 138.576 43.5269C137.465 43.5269 136.35 43.5269 135.24 43.5269C135.068 43.5269 134.985 43.4466 134.989 43.2746C134.989 43.1332 134.989 42.9956 134.989 42.8541C134.989 37.4988 134.989 32.1473 134.989 26.792C134.989 26.7002 135 26.6047 134.989 26.5129C134.939 26.1307 135.126 26.0466 135.472 26.0504C136.423 26.0695 137.37 26.0504 138.321 26.0581C138.846 26.0581 138.853 26.0695 138.857 26.6047C138.861 29.3492 138.857 32.0938 138.857 34.8422H138.853V34.846Z" fill="white"/>
<path opacity="0.97" d="M136.921 19.445C137.431 19.445 137.937 19.4565 138.446 19.4412C138.732 19.4336 138.865 19.5177 138.857 19.8311C138.842 20.7829 138.846 21.7347 138.857 22.6865C138.861 22.9732 138.789 23.107 138.473 23.1032C137.434 23.0879 136.392 23.0917 135.354 23.1032C135.095 23.1032 134.981 23.0267 134.985 22.7477C134.996 21.7729 135 20.7982 134.985 19.8235C134.981 19.5062 135.118 19.4336 135.399 19.4412C135.909 19.4565 136.415 19.445 136.925 19.445H136.921Z" fill="white"/>
<path d="M34.797 17.3962C34.1807 17.5682 33.6064 17.3006 33.032 17.1859C30.0308 16.6011 27.0981 16.7693 24.211 17.8052C22.2635 18.5047 20.3654 19.2883 18.6081 20.393C15.2988 22.4725 13.3018 25.4464 12.5258 29.2689C12.1911 30.9125 12.0998 32.583 11.9476 34.2496C11.746 36.4246 11.5939 38.6034 11.3124 40.7708C11.0347 42.919 10.7 45.0482 10.1522 47.1429C9.66916 48.9892 9.05675 50.7934 8.27318 52.5326C8.02213 52.5326 7.97268 52.3147 7.88139 52.1733C5.42414 48.4081 3.79232 44.3219 3.03156 39.8725C2.59032 37.2847 2.49142 34.6815 2.67781 32.0822C2.92506 28.6076 3.74667 25.2476 5.11223 22.0329C6.3865 19.0322 8.08679 16.2953 10.1827 13.8145C12.4802 11.0929 15.1846 8.84524 18.2391 7.02191C21.4381 5.11448 24.8805 3.85305 28.5283 3.14207C30.7649 2.7063 33.032 2.61838 35.3067 2.66043C40.3619 2.75599 45.09 4.07858 49.5252 6.47529C51.9026 7.75965 54.0631 9.34981 56.0411 11.2037C58.9548 13.9368 61.2827 17.1018 63.0134 20.6988C64.3409 23.4587 65.2234 26.3599 65.7217 29.3912C66.1249 31.8414 66.2352 34.3031 66.0679 36.7648C65.8358 40.2203 65.0599 43.565 63.7247 46.7683C62.4809 49.7537 60.83 52.4982 58.7684 54.979C56.2769 57.9759 53.3366 60.4376 49.9436 62.3488C47.0337 63.9887 43.9489 65.1507 40.6738 65.8082C40.5825 65.8273 40.495 65.8579 40.4037 65.877C40.1299 65.9267 39.9777 65.8541 39.9473 65.533C39.8294 64.2754 39.8256 63.0216 40.0005 61.7754C40.4798 58.3505 41.8416 55.2619 43.6408 52.3491C45.5312 49.2911 47.8325 46.5581 50.2707 43.932C51.9634 42.1087 53.8463 40.4803 55.5618 38.6799C56.2199 37.9918 56.916 37.3382 57.5017 36.5813C57.612 36.4361 57.7718 36.3176 57.7642 36.1073L57.7832 36.0424L57.8289 35.9927L57.8935 35.9697C58.8216 34.9491 59.3656 33.7221 59.6889 32.4071C60.2367 30.1633 59.5444 28.2788 57.8859 26.7346C56.1628 25.1253 54.0669 24.2079 51.8607 23.5313C49.1829 22.7095 46.5278 21.8188 43.9374 20.7409C43.7244 20.653 43.5228 20.5421 43.3136 20.4427C43.0968 20.2936 42.9561 20.0834 42.8458 19.8502C42.2105 18.5085 41.0504 17.8434 39.7038 17.4459C38.441 17.0751 37.1591 17.121 35.8734 17.358C35.5235 17.4229 35.1659 17.6026 34.8008 17.4L34.797 17.3962Z" fill="#1C256A"/>
<path d="M23.7318 26.6391C23.6671 23.2791 26.4972 20.4351 29.9472 20.4887C33.0244 20.5345 35.9724 22.9236 35.999 26.6085C36.0256 30.2437 33.188 32.8353 29.8407 32.8277C26.2765 32.8201 23.6481 29.8729 23.7356 26.6391H23.7318Z" fill="#FFFFFD"/>
<path d="M50.5294 32.8238C50.5294 32.0708 51.0886 31.4936 51.8303 31.4859C52.5682 31.4783 53.173 32.0593 53.1807 32.7817C53.1921 33.5539 52.5949 34.1655 51.8379 34.154C51.0886 34.1426 50.5332 33.5768 50.5294 32.8238Z" fill="#FEFEFC"/>
<path opacity="0.97" d="M203.209 31.5892C201.905 27.1551 197.561 24.6895 193.122 25.8898C190.49 26.6008 188.751 28.3247 187.705 30.8017C186.876 32.7665 186.754 34.8192 187.089 36.9024C187.382 38.7067 188.063 40.3465 189.36 41.6729C190.809 43.1561 192.608 43.8441 194.647 43.9855C196.595 44.1193 198.44 43.7982 200.106 42.7394C201.814 41.6538 202.863 40.0981 203.312 38.0568C202.152 38.0568 201.041 38.0568 199.931 38.0568C199.702 38.0568 199.619 38.1792 199.543 38.3703C198.869 40.0407 197.588 40.8167 195.834 40.9581C192.897 41.1951 190.581 38.8596 190.851 35.8818C191.091 35.771 191.349 35.8283 191.597 35.8283C195.4 35.8245 199.2 35.8283 203.004 35.8245C203.571 35.8245 203.571 35.8169 203.605 35.2511C203.681 34.0088 203.552 32.7894 203.198 31.593L203.209 31.5892ZM199.368 33.2672C199.227 33.2672 199.09 33.2672 198.949 33.2672C197.698 33.2672 196.446 33.2672 195.195 33.2672C193.875 33.2672 192.551 33.2558 191.231 33.2749C190.885 33.2787 190.779 33.1602 190.824 32.8277C191.262 29.3568 194.48 27.9119 197.025 29.0319C198.679 29.7582 199.425 31.2031 199.672 32.9423C199.71 33.2099 199.588 33.2711 199.364 33.2711L199.368 33.2672Z" fill="white"/>
<path opacity="0.97" d="M259.011 30.2742C258.083 28.1336 256.428 26.7384 254.199 26.0351C253.218 25.7254 252.21 25.5955 251.187 25.6337C250.84 25.6337 250.491 25.6184 250.144 25.6375C249.89 25.6528 249.638 25.7025 249.387 25.7445C246.238 26.2797 244.074 28.0266 242.986 31.0617C242.175 33.3246 242.145 35.641 242.784 37.9345C243.617 40.9237 245.527 42.8961 248.547 43.7027C249.886 44.062 251.255 44.1117 252.621 43.9244C255.416 43.5383 257.623 42.2081 258.874 39.6049C260.346 36.5393 260.361 33.3896 259.011 30.278V30.2742ZM255.23 38.4314C254.416 40.098 253.001 40.9543 251.141 40.9466C249.277 40.939 247.927 40.0407 247.059 38.4009C246.462 37.2656 246.253 36.0347 246.223 34.7504C246.261 33.4201 246.531 32.1434 247.189 30.9546C248.897 27.8737 253.526 27.8699 255.169 31.054C256.424 33.4928 256.421 35.985 255.226 38.4314H255.23Z" fill="white"/>
<path opacity="0.97" d="M131.516 32.5142C130.835 29.2422 129.04 26.9334 125.772 25.9777C123.863 25.4197 121.923 25.4426 120.009 26.0045C117.723 26.6811 116.046 28.0992 115.08 30.2934C113.828 33.1335 113.809 36.0424 114.916 38.9207C115.871 41.4092 117.7 42.9841 120.272 43.6798C121.637 44.0505 123.022 44.1079 124.41 43.9168C127.526 43.4848 129.77 41.8641 130.983 38.9055C131.52 37.5943 131.721 36.2182 131.714 34.8077C131.714 34.0394 131.676 33.2711 131.52 32.5142H131.516ZM127.062 38.3321C126.24 40.0637 124.814 40.9658 122.896 40.9467C120.976 40.9314 119.572 39.9949 118.777 38.2556C117.689 35.878 117.716 33.4699 118.887 31.1228C119.629 29.6359 121.128 28.6115 122.668 28.6688C124.852 28.6764 126.24 29.5709 127.054 31.2604C128.176 33.596 128.168 35.9889 127.062 38.3283V38.3321Z" fill="white"/>
<path d="M34.991 4.7514C36.2919 4.48382 37.5775 4.30034 38.9051 4.43031C40.1261 4.54881 41.3395 4.70171 42.5377 4.96928C45.284 5.58853 47.6842 6.89582 49.8638 8.658C51.7923 10.2176 53.7094 11.7924 55.5618 13.4438C59.1222 16.6164 61.7011 20.4542 63.2112 24.9954C63.7742 26.6964 64.1127 28.4471 64.3257 30.2284C64.5083 31.765 64.4399 33.294 64.417 34.8307C64.4094 35.3161 64.3219 35.8016 64.2649 36.2832C64.2497 36.417 64.2268 36.5623 64.01 36.6158C63.7894 36.3138 63.8313 35.9201 63.7742 35.5799C63.021 31.1611 61.762 26.899 59.9818 22.786C58.7114 19.8465 57.0757 17.1248 55.1967 14.5447C53.3861 12.0677 51.062 10.229 48.2433 9.03642C46.1094 8.13431 43.9565 7.28572 41.7503 6.55944C39.8104 5.92108 37.821 5.48914 35.8316 5.06102C35.5463 4.99986 35.2496 4.96928 34.9948 4.74758L34.991 4.7514Z" fill="#FFFFFD"/>
<path d="M56.4976 36.9368C54.2724 38.5308 51.8228 39.6737 49.2552 40.572C47.5511 41.1721 45.8052 41.627 44.0212 41.9137C41.6933 42.2883 39.4072 42.166 37.2048 41.2333C36.2995 40.8511 35.4817 40.3312 34.816 39.5361C35.0062 39.4291 35.128 39.5705 35.2383 39.6355C36.4441 40.3312 37.745 40.7173 39.1181 40.8663C43.23 41.3136 47.1821 40.5949 51.043 39.215C52.8802 38.5576 54.6299 37.7204 56.3378 36.7839C56.4786 36.738 56.5128 36.8068 56.4938 36.933L56.4976 36.9368Z" fill="#101334"/>
<path d="M34.797 17.3962C36.4326 16.9642 38.0797 16.7884 39.7343 17.2471C41.4422 17.7173 42.7203 18.692 43.3099 20.4389C42.6138 20.1407 41.9215 19.8273 41.2216 19.5444C39.2056 18.7341 37.1553 18.0231 35.0138 17.6332C34.8769 17.6064 34.8236 17.5223 34.8008 17.4L34.797 17.3962Z" fill="#101334"/>
<path d="M56.4976 36.9367C56.4444 36.887 56.3949 36.8374 56.3417 36.7877C56.7563 36.3901 57.2698 36.1302 57.7263 35.7938C57.8974 35.6677 57.8632 35.8779 57.8898 35.9658L57.8974 35.9582C57.848 36.0079 57.7985 36.0537 57.7529 36.1073L57.7567 36.0996C57.247 36.241 56.9807 36.7571 56.4938 36.9329L56.4976 36.9367Z" fill="#101334"/>
<path d="M57.7528 36.1111C57.7604 36.0232 57.8099 35.9735 57.8974 35.962C57.8859 36.0461 57.8441 36.1035 57.7528 36.1111Z" fill="#101334"/>
<path d="M29.8369 22.3616C32.0963 22.3425 34.177 24.0856 34.1998 26.6772C34.2226 29.1771 32.2941 31.0272 29.9129 31.0731C27.4899 31.1228 25.5462 29.1733 25.5158 26.7154C25.4891 24.3417 27.4329 22.3807 29.8369 22.3616Z" fill="#101334"/>
</g>
<defs>
<clipPath id="clip0_167_128">
<rect width="260" height="69" fill="white"/>
</clipPath>
</defs>
</svg>
