<svg width="160" height="54" viewBox="0 0 310 54" fill="none" xmlns="http://www.w3.org/2000/svg">
<g clip-path="url(#clip0_167_127)">
<path d="M35.9493 24.8418C34.1636 27.7227 32.3825 30.6081 30.5877 33.4844C30.1481 34.1887 29.7221 34.9157 29.1873 35.5473C27.9817 36.9695 26.6311 38.2646 24.5509 37.6693C22.3075 37.0241 21.605 35.1474 21.5098 33.089C21.3829 30.449 21.4781 27.7954 21.4781 24.4101C19.7377 27.1592 18.3463 29.3312 16.9776 31.5214C15.2554 34.2841 13.642 37.115 11.82 39.805C10.8909 41.1772 11.113 41.9815 12.2823 43.0357C19.9779 49.9924 31.2721 50.3696 39.5297 43.8763C41.9816 41.9497 43.5089 41.7089 44.6238 43.072C45.8475 44.567 45.3535 46.1937 42.8019 48.1294C34.7528 54.2274 25.8879 55.7678 16.5471 51.8645C6.64429 47.7159 1.1921 39.9731 0.131575 29.2267C-1.42296 13.5047 11.1493 -0.549638 27.3019 0.0183524C42.326 0.545448 53.5794 13.1912 52.9132 28.477C52.8089 30.8534 52.0067 33.0709 50.3298 34.8793C47.9368 37.4557 44.6827 38.4145 41.7187 37.2922C38.383 36.029 36.7922 33.4117 36.4523 29.9946C36.2892 28.3497 36.4251 26.673 36.4251 25.0145C36.2665 24.96 36.1124 24.9009 35.9538 24.8464L35.9493 24.8418ZM26.7082 28.6996C26.8532 28.7587 26.9982 28.8223 27.1433 28.8814C28.2854 27.032 29.423 25.1781 30.5741 23.3378C31.7344 21.4793 32.7813 19.5345 34.4899 18.0941C37.0732 15.913 39.9965 16.6855 41.1477 19.8571C41.542 20.934 41.6417 22.0609 41.6371 23.206C41.6281 25.1735 41.5873 27.1456 41.7006 29.104C41.7776 30.4945 42.1175 31.9122 43.8035 32.1893C45.6254 32.4892 46.5817 31.3351 47.189 29.8129C47.955 27.8999 47.6785 25.9551 47.3658 23.9966C45.9789 15.2769 41.1839 9.18799 32.8493 6.50708C24.6189 3.86251 17.0909 5.72552 11.1175 12.1506C5.12149 18.603 3.92953 26.2186 6.62617 34.5158C6.80292 35.0566 6.84824 35.8745 7.56886 35.9108C8.25321 35.9472 8.44356 35.1611 8.74722 34.6749C12.1056 29.2858 15.4412 23.883 18.7996 18.4939C19.4748 17.408 20.0958 16.2674 21.188 15.504C22.9601 14.259 24.9225 14.6816 25.9966 16.5673C26.5767 17.5852 26.7036 18.7075 26.7036 19.8571C26.7036 22.8061 26.7036 25.7506 26.7036 28.6996H26.7082Z" fill="white"/>
<path d="M159.287 27.9679C157.547 29.8263 156.274 31.2122 154.973 32.5709C153.223 34.3975 152.498 34.3884 150.717 32.4982C149.43 31.135 148.184 29.7309 146.656 28.0588C146.158 30.7215 146.489 33.0298 146.393 35.3109C146.357 36.2196 146.421 37.133 146.339 38.0327C146.217 39.4095 145.392 40.3319 144.055 40.4637C142.573 40.6091 141.666 39.6912 141.299 38.2917C141.168 37.7873 141.154 37.242 141.154 36.7149C141.145 30.5852 141.141 24.4509 141.154 18.3211C141.154 17.5078 140.978 16.5126 141.884 16.0901C142.94 15.5993 143.552 16.5081 144.141 17.1624C146.62 19.916 149.113 22.656 151.506 25.4824C152.584 26.7592 153.332 26.6501 154.361 25.4369C156.704 22.6651 159.142 19.9751 161.554 17.2669C162.143 16.6035 162.723 15.672 163.774 16.0628C164.749 16.4263 164.518 17.4532 164.518 18.2575C164.536 24.5418 164.518 30.8215 164.536 37.1057C164.54 38.9051 164.015 40.4273 162.011 40.4455C160.049 40.4637 159.337 38.9551 159.306 37.183C159.256 34.3203 159.292 31.4576 159.292 27.9633L159.287 27.9679Z" fill="white"/>
<path d="M292.225 35.0564C292.225 32.0347 292.143 29.013 292.248 25.9958C292.347 23.2331 293.566 22.547 296.018 23.8329C296.78 24.2328 297.269 23.9601 297.895 23.6966C302.359 21.8245 306.528 23.0059 308.708 26.741C311.092 30.826 310.086 36.5105 306.497 39.2459C304.403 40.8454 302.042 41.0362 299.626 40.3592C298.09 39.9275 297.546 40.2865 297.645 41.8814C297.713 43.0037 297.7 44.1579 297.541 45.2666C297.324 46.7707 296.435 47.8158 294.826 47.7567C293.326 47.7022 292.592 46.6752 292.402 45.2348C292.361 44.9349 292.284 44.635 292.284 44.3351C292.275 41.2407 292.279 38.1463 292.279 35.0473C292.261 35.0473 292.248 35.0473 292.229 35.0473L292.225 35.0564ZM304.72 31.653C304.707 29.3583 303.283 27.8225 301.167 27.8179C299.096 27.8179 297.704 29.3765 297.691 31.7212C297.677 34.134 299.155 35.8607 301.23 35.8561C303.261 35.8516 304.738 34.0749 304.725 31.653H304.72Z" fill="white"/>
<path d="M82.3539 40.6817C77.0105 40.6636 72.4738 37.4556 70.6881 32.5936C68.8345 27.5453 70.3301 21.8108 74.3864 18.3711C78.2659 15.0813 83.9266 14.5406 88.3454 17.0533C89.7187 17.8349 90.956 18.7573 90.3713 20.6158C89.8456 22.2925 88.3409 22.6287 86.2969 21.6109C83.0247 19.9796 79.9519 20.225 77.6586 22.3061C75.3019 24.4372 74.5223 28.1087 75.7415 31.2804C77.3368 35.4108 81.5563 37.083 85.5899 35.1472C86.2652 34.8246 86.8816 34.3702 87.5025 33.9431C88.7352 33.1025 89.9634 33.0434 90.9197 34.243C91.9893 35.5835 91.4454 36.833 90.2626 37.7964C87.9058 39.7094 85.2409 40.8362 82.3539 40.6817Z" fill="white"/>
<path d="M260.214 40.6863C255.532 40.7045 250.959 37.5646 249.106 32.7299C247.193 27.7361 248.639 21.9472 252.668 18.4711C256.557 15.1176 262.145 14.5178 266.636 16.9761C267.03 17.1942 267.429 17.4259 267.774 17.7122C268.916 18.6574 269.26 19.8751 268.463 21.1338C267.665 22.3925 266.45 22.6833 265.118 21.8835C262.847 20.5294 260.459 20.0887 257.966 21.0702C254.01 22.6287 252.346 27.9042 254.417 32.1119C256.208 35.7516 260.849 37.0012 264.538 34.8292C264.928 34.5974 265.299 34.3339 265.662 34.0658C266.917 33.1479 268.231 32.9116 269.274 34.2339C270.434 35.7016 269.673 36.9285 268.417 37.919C266.151 39.7003 263.613 40.7363 260.21 40.6818L260.214 40.6863Z" fill="white"/>
<path d="M184.754 31.7756C184.754 33.7386 184.826 35.7016 184.735 37.66C184.609 40.3955 183.163 41.1906 180.983 39.6275C180.076 38.9778 179.614 39.5321 178.98 39.8002C175.934 41.0861 172.925 41.2679 170.269 39.0096C167.3 36.4877 166.389 33.1524 167.246 29.3946C168.034 25.9321 170.165 23.692 173.695 22.8877C175.662 22.4379 177.43 22.9786 179.088 23.9555C179.886 24.4236 180.339 24.5553 181.15 23.7556C182.596 22.3288 184.45 23.0967 184.645 25.2187C184.844 27.3862 184.69 29.59 184.69 31.7756C184.713 31.7756 184.735 31.7756 184.754 31.7756ZM179.288 31.6393C179.261 29.381 177.779 27.7406 175.753 27.7224C173.867 27.7043 172.231 29.5582 172.231 31.712C172.231 34.0112 173.867 35.8924 175.834 35.8606C177.915 35.8243 179.319 34.1067 179.292 31.6393H179.288Z" fill="white"/>
<path d="M288.563 31.662C288.563 33.6295 288.631 35.5971 288.545 37.56C288.427 40.3091 287.004 41.127 284.792 39.623C283.895 39.0141 283.428 39.5094 282.775 39.7866C279.725 41.0998 276.702 41.2861 274.055 38.9959C271.109 36.4513 270.221 33.1342 271.087 29.3492C271.871 25.9276 273.983 23.7919 277.368 22.9195C279.399 22.397 281.257 22.8741 282.975 23.9873C283.668 24.4372 284.094 24.5917 284.874 23.8692C286.523 22.3333 288.259 23.0286 288.468 25.3096C288.658 27.4089 288.508 29.54 288.508 31.6575C288.527 31.6575 288.545 31.6575 288.563 31.6575V31.662ZM283.092 31.7892C283.12 29.4264 281.81 27.8951 279.698 27.8179C277.636 27.7406 276.099 29.3083 276.031 31.5666C275.963 33.8158 277.572 35.8106 279.494 35.8515C281.592 35.897 283.065 34.2293 283.092 31.7938V31.7892Z" fill="white"/>
<path d="M206.975 29.0539C208.665 27.7452 209.907 26.0549 211.303 24.5281C212.486 23.2377 213.832 22.3062 215.368 23.7284C216.846 25.1007 216.22 26.5411 215.019 27.8816C211.883 31.3849 211.906 31.4031 214.82 35.0564C215.151 35.4699 215.486 35.8789 215.785 36.3151C216.696 37.6374 216.628 38.9006 215.35 39.9184C214.126 40.8908 212.885 40.5682 211.915 39.5231C210.238 37.7146 208.661 35.8107 206.589 33.4297C206.589 35.2336 206.671 36.4105 206.571 37.5738C206.426 39.2777 205.561 40.55 203.734 40.441C202.012 40.3365 201.378 39.0414 201.378 37.4056C201.378 31.2123 201.368 25.0143 201.387 18.821C201.387 17.1943 202.057 15.9492 203.843 15.9038C205.724 15.8583 206.535 17.117 206.585 18.8255C206.662 21.4655 206.594 24.1147 206.635 26.7592C206.644 27.4817 206.39 28.2587 206.984 29.0539H206.975Z" fill="white"/>
<path d="M227.139 33.4069C226.005 33.4069 224.877 33.3888 223.744 33.416C223.241 33.4251 222.561 33.2434 222.362 33.875C222.158 34.5247 222.629 35.0382 223.132 35.3835C224.165 36.0969 225.326 36.3832 226.567 36.1378C227.528 35.947 228.462 35.638 229.423 35.4426C230.479 35.2336 231.43 35.4971 231.897 36.5377C232.391 37.6419 232.029 38.5688 231.082 39.3322C226.572 42.9674 218.124 40.0729 216.996 34.3612C216.302 30.8442 216.579 27.3226 219.488 24.719C222.022 22.4561 225.054 22.2062 228.195 23.2558C231.159 24.2464 233.257 27.1545 233.375 30.2943C233.461 32.5572 232.777 33.3206 230.529 33.3933C229.4 33.4297 228.267 33.3979 227.134 33.3979V33.4069H227.139Z" fill="white"/>
<path d="M101.425 40.6727C96.5441 40.6864 92.3746 36.5832 92.4017 31.7848C92.4289 26.8546 96.4127 22.7787 101.276 22.706C105.976 22.6379 110.05 26.7047 110.104 31.5167C110.163 36.5196 106.243 40.6545 101.425 40.6682V40.6727ZM101.348 27.8816C99.1955 27.8816 97.8086 29.3447 97.7859 31.6349C97.7633 34.0568 99.1773 35.7971 101.208 35.8516C103.17 35.9061 104.793 34.0704 104.815 31.7712C104.838 29.5219 103.37 27.877 101.344 27.8816H101.348Z" fill="white"/>
<path d="M121.621 31.4349C121.621 29.3947 121.539 27.3499 121.643 25.3142C121.748 23.2922 123.261 22.4061 124.879 23.5239C125.854 24.1964 126.447 23.9238 127.3 23.5512C132.747 21.1656 137.474 24.1146 137.728 30.0853C137.832 32.4982 137.76 34.9246 137.746 37.342C137.737 39.0641 137.039 40.45 135.199 40.4546C133.268 40.4546 132.498 39.0823 132.498 37.2375C132.498 35.0473 132.484 32.8526 132.484 30.6624C132.484 28.9585 131.718 27.9406 129.951 27.8316C128.093 27.718 127.055 28.6994 126.937 30.4579C126.792 32.6436 126.892 34.8383 126.842 37.033C126.787 39.255 125.722 40.6636 124.132 40.4955C122.165 40.2865 121.571 38.9142 121.594 37.1103C121.621 35.22 121.598 33.3297 121.598 31.4394C121.603 31.4394 121.607 31.4394 121.612 31.4394L121.621 31.4349Z" fill="white"/>
<path d="M243.595 40.6863C239.679 40.6545 238.233 39.3868 237.522 35.8516C237.141 33.9704 237.218 32.0801 237.241 30.1944C237.254 28.8767 237.096 27.8452 235.577 27.409C234.553 27.1136 234.036 26.2366 234.046 25.1279C234.055 23.9919 234.676 23.2149 235.695 22.9423C236.996 22.597 237.34 21.7836 237.223 20.584C237.2 20.3613 237.218 20.1296 237.223 19.9024C237.272 17.1715 238.084 15.9219 239.842 15.8719C241.619 15.822 242.489 17.0488 242.453 19.8024C242.43 21.4246 242.394 22.7969 244.637 22.8787C245.757 22.9196 246.491 23.8374 246.518 25.0825C246.545 26.2912 245.965 27.3317 244.823 27.4408C242.471 27.668 242.294 29.1039 242.462 30.9305C242.566 32.0574 242.53 33.1979 242.661 34.3203C242.752 35.0973 243.092 35.7471 244.039 35.8698C245.698 36.0879 247.098 36.7876 246.772 38.7324C246.45 40.6727 244.828 40.7908 243.599 40.6818L243.595 40.6863Z" fill="white"/>
<path d="M188.443 31.2167C188.443 29.4037 188.348 27.5907 188.461 25.7867C188.629 23.1513 189.871 22.456 192.15 23.7556C192.921 24.1964 193.369 23.9873 193.977 23.642C195.037 23.0331 196.188 22.656 197.426 22.7469C198.785 22.8468 199.705 23.5602 199.819 24.987C199.923 26.282 199.27 27.1454 198.028 27.5134C197.598 27.6407 197.149 27.7361 196.705 27.7861C194.67 28.0087 193.859 29.222 193.872 31.1758C193.886 33.1388 193.909 35.1018 193.836 37.0602C193.759 39.2777 192.671 40.6317 191.063 40.4863C189.055 40.3046 188.52 38.8096 188.461 37.1057C188.393 35.1472 188.443 33.1843 188.443 31.2213V31.2167Z" fill="white"/>
<path d="M112.543 31.6712C112.543 29.7037 112.511 27.7407 112.556 25.7732C112.593 24.2055 113.327 23.1513 115.013 23.1241C116.662 23.0968 117.641 24.1146 117.682 25.6232C117.8 29.6991 117.791 33.7887 117.682 37.8646C117.641 39.3822 116.64 40.4955 115.067 40.4591C113.363 40.4228 112.565 39.2277 112.543 37.5647C112.516 35.5971 112.538 33.6342 112.543 31.6666V31.6712Z" fill="white"/>
<path d="M118.144 18.4802C118.181 20.0887 116.826 21.4973 115.185 21.5519C113.522 21.6109 112.157 20.2977 112.144 18.6256C112.13 17.0034 113.513 15.5221 115.063 15.4903C116.604 15.4584 118.113 16.9216 118.149 18.4802H118.144Z" fill="white"/>
</g>
<defs>
<clipPath id="clip0_167_127">
<rect width="310" height="54" fill="white"/>
</clipPath>
</defs>
</svg>
