<svg width="140" height="60" viewBox="0 0 275 60" fill="none" xmlns="http://www.w3.org/2000/svg">
<g clip-path="url(#clip0_167_126)">
<path d="M211.108 45.2572C211.425 44.9199 211.539 44.4815 211.704 44.0767C213.126 40.5143 214.468 36.9182 215.784 33.3137C216.694 30.8263 217.609 28.339 218.43 25.8221C218.87 24.4688 218.519 23.9334 217.105 23.7648C216.834 23.731 216.559 23.7395 216.288 23.7015C215.878 23.6425 215.704 23.4528 215.679 23.0818C215.653 22.7108 215.806 22.5127 216.233 22.4283C216.525 22.3693 216.826 22.344 217.122 22.344C219.06 22.3356 221.003 22.3398 222.941 22.344C223.365 22.344 223.792 22.3693 224.194 22.5042C224.524 22.6181 224.609 22.8541 224.418 23.1366C224.232 23.4148 223.961 23.6046 223.648 23.6973C222.599 24.0093 222.036 24.785 221.608 25.7209C220.783 27.5253 220.097 29.3845 219.373 31.2268C216.864 37.6096 214.358 43.9924 211.874 50.3837C211.628 51.016 211.222 51.2648 210.608 51.3406C209.254 51.5051 209.212 51.4798 208.729 50.2319C206.537 44.5489 204.344 38.8659 202.148 33.1872C201.995 32.7951 201.818 32.4115 201.61 32.0489C201.449 31.7707 201.272 31.7749 201.111 32.0489C200.95 32.3229 200.823 32.6265 200.704 32.9216C198.851 37.5127 197.115 42.1501 195.355 46.7791C194.834 48.145 194.301 49.5068 193.814 50.8811C193.67 51.2901 193.463 51.4208 193.048 51.3575C192.582 51.2858 192.108 51.2268 191.639 51.231C191.156 51.2353 190.961 51.0118 190.801 50.586C189.891 48.1535 188.947 45.7294 188.016 43.301C186.026 38.124 184.067 32.9385 181.891 27.8331C181.523 26.9688 181.104 26.1214 180.727 25.2614C180.334 24.3592 179.627 23.8744 178.679 23.731C178.247 23.6678 177.917 23.516 177.748 23.1029C177.6 22.7403 177.693 22.5211 178.082 22.4452C178.446 22.3735 178.823 22.3398 179.191 22.3398C181.726 22.3314 184.266 22.3314 186.801 22.3398C187.224 22.3398 187.643 22.3693 188.062 22.4621C188.384 22.5337 188.528 22.7234 188.524 23.0354C188.519 23.3685 188.388 23.6256 188.028 23.6762C187.711 23.7184 187.385 23.71 187.059 23.7353C186.065 23.8196 185.844 24.0683 185.904 25.0464C185.954 25.8727 186.217 26.6484 186.471 27.4241C187.694 31.1636 189.112 34.8398 190.479 38.5287C191.27 40.6661 192.032 42.8078 192.934 44.903C193.01 45.0759 193.044 45.274 193.209 45.3963C193.387 45.3794 193.387 45.2319 193.425 45.1265C195.211 40.3794 197.081 35.6577 198.702 30.8474C199.011 29.9326 199.27 29.0009 199.43 28.0481C199.799 25.8769 198.609 24.1611 196.434 23.7521C196.1 23.6889 195.795 23.6467 195.672 23.2715C195.545 22.8752 195.681 22.5928 196.087 22.4705C196.519 22.3398 196.971 22.3356 197.42 22.3356C199.409 22.3272 201.398 22.3187 203.392 22.3187C204.238 22.3187 205.085 22.3398 205.927 22.3693C206.173 22.3777 206.418 22.4283 206.664 22.4789C206.981 22.5422 207.129 22.753 207.1 23.0691C207.07 23.3896 206.939 23.6467 206.575 23.6889C206.304 23.7226 206.029 23.7268 205.758 23.769C204.679 23.946 204.158 24.5742 204.179 25.6703C204.188 26.1973 204.332 26.699 204.484 27.1965C205.669 31.0034 207.023 34.7513 208.386 38.4949C209.123 40.5186 209.863 42.5422 210.697 44.5278C210.803 44.7766 210.871 45.0464 211.108 45.253V45.2572Z" fill="white"/>
<path d="M107.444 29.3718C107.389 30.4384 107.312 31.446 107.291 32.4536C107.202 36.3702 107.262 40.2867 107.401 44.199C107.435 45.0885 107.49 45.9823 107.562 46.8676C107.676 48.2631 108.116 48.7816 109.454 49.1906C109.835 49.3086 110.212 49.4266 110.584 49.5615C110.821 49.6459 111.037 49.7723 111.189 49.9789C111.435 50.3162 111.325 50.6535 110.923 50.7841C110.588 50.898 110.237 50.9148 109.89 50.9233C107.376 50.9781 104.866 50.9823 102.352 50.9191C102.056 50.9106 101.751 50.8853 101.467 50.8094C100.934 50.6745 100.82 50.1897 101.205 49.7976C101.387 49.6121 101.624 49.5363 101.861 49.4604C102.073 49.3929 102.297 49.355 102.513 49.3044C103.292 49.1231 103.761 48.6298 103.99 47.8836C104.231 47.0953 104.333 46.2858 104.388 45.4722C104.637 41.6863 104.595 37.8921 104.633 34.102C104.659 31.6484 104.65 29.1948 104.443 26.7496C104.282 24.882 103.338 23.9503 101.463 23.7521C101.141 23.7184 100.816 23.731 100.494 23.6889C100.071 23.6383 99.9099 23.4612 99.8845 23.0734C99.8591 22.6855 99.9987 22.4916 100.426 22.4115C100.718 22.3567 101.019 22.3356 101.315 22.3356C103.207 22.3356 105.099 22.3482 106.986 22.3356C107.312 22.3356 107.537 22.4368 107.752 22.6855C112.505 28.1619 117.5 33.4191 122.35 38.8027C123.548 40.1307 124.699 41.5008 125.994 42.7319C126.18 42.9089 126.345 43.2673 126.633 43.1408C126.913 43.0228 126.786 42.6518 126.798 42.3946C127.01 38.3811 126.9 34.3676 126.832 30.3541C126.807 28.9165 126.79 27.4789 126.798 26.0413C126.798 25.6535 126.688 25.3879 126.379 25.1602C125.884 24.7892 125.448 24.3381 124.881 24.0599C124.475 23.8617 124.051 23.7437 123.599 23.6931C123.04 23.6298 122.904 23.4823 122.9 23.0228C122.892 22.5801 123.023 22.4494 123.616 22.3777C123.963 22.3398 124.31 22.3271 124.657 22.3271C126.972 22.3271 129.283 22.3735 131.594 22.4958C131.991 22.5169 132.389 22.5717 132.762 22.7108C133.066 22.8246 133.1 23.0734 132.855 23.2884C132.609 23.5076 132.313 23.6214 131.991 23.7057C131.56 23.8153 131.132 23.9418 130.709 24.0978C130.184 24.2917 129.977 24.6501 129.947 25.1602C129.888 26.1509 129.799 27.1374 129.769 28.1282C129.558 35.4595 129.558 42.7993 129.49 50.1307C129.482 50.9992 129.482 50.9865 128.644 50.9696C128.148 50.9612 127.729 50.7926 127.34 50.4932C126.527 49.8735 125.812 49.1484 125.11 48.4106C119.823 42.8499 114.702 37.1374 109.619 31.3954C109.111 30.8179 108.574 30.2656 108.045 29.7091C107.909 29.5658 107.791 29.4013 107.431 29.3508L107.444 29.3718Z" fill="white"/>
<path d="M88.2835 33.8618C88.2835 31.9056 88.2962 29.9495 88.2793 27.9933C88.2708 27.1248 88.1989 26.2606 87.9957 25.4132C87.7206 24.2749 87.3947 23.984 86.2477 23.8154C86.0022 23.7775 85.7525 23.7395 85.5198 23.6678C85.2023 23.5709 85.033 23.339 85.033 23.0017C85.033 22.6307 85.2743 22.479 85.6002 22.4326C85.8964 22.3904 86.1927 22.3567 86.489 22.3525C88.4528 22.3441 90.4166 22.3441 92.3847 22.3525C92.7064 22.3525 93.028 22.3989 93.3497 22.441C93.684 22.4874 93.8914 22.6645 93.8787 23.0355C93.866 23.4486 93.684 23.6636 93.265 23.7311C92.0038 23.9377 91.9107 24.0135 91.6821 25.2783C91.479 26.4039 91.4451 27.5422 91.4112 28.6805C91.3097 32.3694 91.225 36.0624 91.0769 39.7471C91.0134 41.3533 90.9118 42.9596 90.5563 44.5405C90.15 46.3576 89.1808 47.812 87.7714 48.9925C86.8149 49.7977 85.7398 50.4174 84.5886 50.9022C83.6871 51.2859 82.7391 51.4882 81.7614 51.4967C79.9711 51.5093 78.1681 51.678 76.3989 51.3618C73.0299 50.7589 70.5074 48.9672 69.0346 45.8306C68.6917 45.1054 68.6409 44.3002 68.5817 43.5076C68.4082 41.1847 68.4166 38.8533 68.3531 36.5262C68.277 33.6299 68.205 30.7336 68.1161 27.8331C68.0907 26.9183 68.0061 26.0034 67.8114 25.1054C67.5786 24.0431 67.3035 23.8154 66.1989 23.7227C66.0507 23.71 65.8984 23.71 65.7545 23.6678C65.4455 23.5751 65.3524 23.3179 65.3439 23.0313C65.3354 22.7614 65.4582 22.5633 65.7418 22.479C66.0804 22.3778 66.4274 22.3525 66.7745 22.3483C69.2377 22.3019 71.701 22.3061 74.16 22.3483C74.5324 22.3567 74.9091 22.3694 75.2689 22.4832C75.6583 22.6097 75.7218 22.8289 75.4551 23.1409C75.2604 23.3727 74.998 23.5203 74.7314 23.6552C74.5536 23.7437 74.3632 23.8028 74.1812 23.8786C73.7749 24.0515 73.1908 24.0051 72.9834 24.3845C72.8014 24.7134 72.903 25.2024 72.903 25.624C72.8945 30.2825 72.7125 34.9368 72.7929 39.5953C72.8141 40.7589 72.8818 41.9225 72.9199 43.0861C73.0172 46.0751 75.0022 48.2969 78.003 48.9545C79.2304 49.2243 80.4747 49.2117 81.7148 49.0894C84.1696 48.8491 87.6656 46.4124 88.0084 42.8373C88.1819 41.0076 88.2877 39.1864 88.3131 37.3525C88.3301 36.1889 88.3131 35.0253 88.3131 33.8618C88.3004 33.8618 88.2835 33.8618 88.2708 33.8618H88.2835Z" fill="white"/>
<path d="M166.731 21.7749C168.301 21.7412 169.863 21.817 171.42 22.0321C172.25 22.1459 172.428 22.3398 172.529 23.1619C172.555 23.36 172.559 23.5582 172.572 23.7563C172.635 24.7681 172.631 25.7842 172.851 26.7875C172.948 27.2344 172.809 27.3778 172.364 27.4073C171.882 27.4368 171.492 27.2555 171.192 26.8803C170.942 26.5683 170.747 26.2226 170.587 25.86C169.846 24.1568 168.504 23.4275 166.689 23.3896C165.609 23.3685 164.555 23.4402 163.544 23.866C161.749 24.6248 160.729 26.1636 160.848 27.9132C160.911 28.8238 161.347 29.5616 161.923 30.2319C162.575 30.9907 163.349 31.6063 164.158 32.1965C165.182 32.9427 166.278 33.5835 167.349 34.258C169.033 35.3162 170.705 36.4039 172.076 37.8626C173.846 39.7471 174.506 41.9815 173.985 44.511C173.57 46.5262 172.356 48.0396 170.752 49.2665C168.877 50.7041 166.727 51.3702 164.386 51.5177C161.859 51.6779 159.434 51.269 157.085 50.3499C156.785 50.2319 156.654 50.1012 156.658 49.7681C156.683 48.2799 156.679 46.796 156.7 45.3078C156.7 45.0633 156.747 44.8145 156.785 44.57C156.823 44.3086 156.924 44.0936 157.233 44.0557C157.53 44.0177 157.784 44.0978 157.949 44.3508C158.042 44.4941 158.11 44.6585 158.152 44.8272C158.228 45.1138 158.275 45.409 158.342 45.6998C158.854 47.9258 160.221 49.3002 162.473 49.7808C163.358 49.9705 164.259 49.9747 165.144 49.8187C167.163 49.452 168.504 48.2631 169.355 46.4123C170.257 44.452 169.829 42.7572 168.521 41.1805C167.865 40.3879 167.036 39.7934 166.185 39.2285C164.966 38.4149 163.696 37.6813 162.431 36.9435C161.051 36.1341 159.777 35.1855 158.787 33.9123C157.039 31.6653 156.607 29.1653 157.542 26.4924C158.224 24.5489 159.714 23.339 161.55 22.5211C162.604 22.0489 163.713 21.7875 164.873 21.7875C165.495 21.7875 166.117 21.7875 166.739 21.7875L166.731 21.7749Z" fill="white"/>
<path d="M144.38 50.9359C143.064 50.9359 141.747 50.9359 140.427 50.9359C140.054 50.9359 139.682 50.9148 139.318 50.8178C139.085 50.7546 138.895 50.6703 138.869 50.4005C138.844 50.1306 138.924 49.9114 139.161 49.7639C139.441 49.591 139.758 49.5193 140.075 49.4603C141.65 49.1568 141.912 48.9038 142.225 47.3524C142.458 46.2057 142.484 45.0421 142.496 43.8785C142.543 39.0978 142.496 34.3212 142.407 29.5404C142.382 28.2082 142.386 26.8676 142.2 25.5396C142.056 24.5151 141.76 24.1526 140.774 23.8912C140.363 23.7816 139.944 23.7478 139.521 23.7099C139.034 23.6677 138.878 23.4907 138.865 23.0733C138.852 22.6812 138.962 22.5379 139.441 22.4494C139.779 22.3861 140.13 22.3566 140.478 22.3524C143.089 22.344 145.696 22.344 148.307 22.3524C148.68 22.3524 149.052 22.4072 149.416 22.462C149.746 22.5126 149.954 22.6939 149.933 23.0691C149.912 23.4443 149.751 23.634 149.34 23.7057C149.145 23.7394 148.942 23.7394 148.748 23.7774C147.558 24.0177 146.957 24.6711 146.767 25.86C146.606 26.8718 146.644 27.8878 146.644 28.8996C146.644 34.494 146.661 40.0927 146.813 45.6871C146.835 46.4038 146.919 47.1205 146.962 47.833C147.012 48.6551 147.452 49.1483 148.227 49.3802C148.587 49.4856 148.951 49.5446 149.323 49.5826C149.734 49.6247 149.907 49.8313 149.924 50.2023C149.941 50.586 149.818 50.7546 149.361 50.8389C149.048 50.8979 148.718 50.9274 148.396 50.9274C147.055 50.9359 145.713 50.9274 144.371 50.9274L144.38 50.9359Z" fill="white"/>
<path d="M33.2285 26.2985C33.3851 26.2268 33.4529 26.2479 33.5079 26.2985C34.8665 27.4579 36.5298 27.8499 38.227 28.1577C40.157 28.5076 42.1123 28.7015 44.0169 29.1948C45.8157 29.6628 47.4917 30.3921 48.8969 31.64C50.7761 33.3137 51.7368 35.4174 51.7749 37.93C51.8003 39.511 51.5633 41.0371 50.8099 42.4536C50.7549 42.559 50.6872 42.6602 50.6025 42.8036C50.429 42.6181 50.4163 42.4241 50.3994 42.2429C50.2639 40.9106 49.5952 39.8693 48.6218 38.9966C47.8388 38.2968 46.9288 37.7867 45.9977 37.3145C44.2455 36.4292 42.4086 35.7336 40.6098 34.9621C39.1708 34.3466 37.7614 33.6678 36.4706 32.7783C35.7722 32.2977 35.1331 31.7496 34.5871 31.0961C33.4063 29.6796 33.127 28.027 33.2328 26.2943L33.2285 26.2985Z" fill="white"/>
<path d="M48.2621 29.2116C47.3902 27.8962 46.1544 27.1627 44.5968 26.9139C43.2933 26.7074 41.977 26.6568 40.6649 26.5682C39.2979 26.4755 37.952 26.3026 36.623 25.9612C34.6634 25.4595 33.0212 24.4561 31.6711 22.9595C30.558 21.7242 29.5591 20.3962 28.5391 19.0851C27.7942 18.1281 27.0282 17.1838 26.1605 16.3279C24.6834 14.8693 22.9608 13.8364 20.9504 13.2883C21.0055 12.9215 21.2509 13.107 21.4372 13.1197C22.9481 13.1956 24.2729 13.7942 25.5257 14.5784C26.8885 15.43 28.0143 16.5514 29.0597 17.7487C29.4025 18.145 29.7327 18.2124 30.2236 18.1365C34.3629 17.4789 38.2863 18.0354 41.9135 20.2403C42.3748 20.5227 42.6542 20.8516 42.7134 21.3954C42.8573 22.6602 42.9547 23.908 42.3367 25.1011C42.087 25.5775 42.2521 26.0792 42.6457 26.3406C43.0732 26.6231 43.488 26.564 43.9112 26.1298C44.4614 25.5649 44.7407 24.844 44.9651 24.1062C45.0582 23.8026 45.1174 23.4949 45.1978 23.1787C46.3575 23.9629 48.0462 26.9645 48.4272 28.8996C48.516 29.0809 48.533 29.2285 48.2579 29.2158L48.2621 29.2116Z" fill="white"/>
<path d="M44.5757 55.4848C44.8423 54.823 45.1301 54.2454 45.2783 53.6172C45.5999 52.2429 45.4179 50.9149 44.8889 49.6248C44.2921 48.1703 43.4076 46.8845 42.5653 45.5734C42.032 44.7386 41.4818 43.9165 40.9485 43.0818C40.3475 42.1375 39.8481 41.1467 39.5476 40.0633C39.2302 38.9208 39.1879 37.7698 39.4672 36.6147C39.5857 36.1257 39.645 36.1004 40.047 36.328C41.6215 37.2218 43.1959 38.1113 44.7619 39.0219C45.5788 39.4983 46.3448 40.0422 47.0601 40.6619C48.7107 42.0953 49.7011 43.887 49.8493 46.0624C50.1117 49.9536 48.7319 53.0818 45.3291 55.1939C45.1259 55.3204 44.927 55.4806 44.5842 55.4891L44.5757 55.4848Z" fill="white"/>
<path d="M39.9242 58.9545C39.0227 59.5574 38.0704 59.9916 36.953 60C35.878 60.0085 34.9596 59.6501 34.1681 58.9503C33.5671 58.4191 33.0888 57.7867 32.7418 57.0658C32.2805 56.1088 31.8445 55.1349 31.3874 54.1737C30.833 53.0101 30.0923 52.0068 28.9326 51.3617C28.0565 50.8769 27.1339 50.6661 26.135 50.9064C24.8103 51.2226 23.9807 52.2934 24.1035 53.5371C24.2177 54.7091 25.352 55.7673 26.6006 55.7926C27.9465 55.8221 28.9242 54.6417 28.5009 53.1914C28.4163 52.9005 28.1962 52.6897 27.938 52.5169C27.5063 52.2344 27.0408 52.1037 26.5286 52.1332C26.3763 52.167 26.1985 52.2386 26.1858 51.973C27.6164 51.4039 29.0342 52.188 29.2543 53.672C29.5336 55.5523 27.8999 57.1417 25.9996 56.8213C25.1489 56.6779 24.3786 56.3491 23.7606 55.7294C23.3205 55.2909 22.8634 54.8735 22.4444 54.414C21.0646 52.8963 19.342 52.0616 17.3147 51.8044C17.0015 51.7665 16.6925 51.6906 16.3963 51.6358C16.3666 51.4756 16.4598 51.4165 16.5317 51.3533C18.7537 49.4056 21.2678 47.9933 24.1839 47.4031C26.1223 47.011 28.0438 47.1332 29.8807 47.9342C31.7556 48.7479 32.9492 50.1518 33.4909 52.1164C33.838 53.3853 33.9734 54.6923 34.2189 55.9781C34.2866 56.3449 34.3967 56.699 34.5279 57.0447C35.0738 58.4781 36.0007 59.3086 38.0281 59.1821C38.6756 59.14 39.2978 58.9587 39.9157 58.769C39.9919 58.8238 39.9919 58.8828 39.9242 58.9461V58.9545Z" fill="white"/>
<path d="M19.3674 14.4941C21.145 14.5658 22.6983 15.6914 23.3247 17.3314C23.6421 18.1661 23.858 19.0346 24.0231 19.9073C24.2643 21.1973 24.7595 22.3651 25.4748 23.457C25.6187 23.6763 25.8768 23.9208 25.716 24.1906C25.534 24.4899 25.187 24.3845 24.8949 24.3466C24.3659 24.2833 23.8918 24.0599 23.4474 23.7859C22.5883 23.2631 21.8645 22.5886 21.2678 21.7833C19.9473 19.9958 18.9611 16.8803 19.3674 14.4941Z" fill="white"/>
<path d="M24.8484 44.9916C26.1943 44.1357 27.7053 43.7563 29.2501 43.4739C30.3971 43.2673 31.5525 43.0902 32.6868 42.833C34.4305 42.441 35.8611 41.5641 36.7287 39.9452C37.3763 38.7352 37.4398 37.441 37.1774 36.1172C37.135 35.898 37.0969 35.6787 37.0589 35.4637C37.0081 35.2993 37.0842 35.2572 37.2324 35.2867C38.7391 37.2091 38.7307 40.5228 36.5383 42.4789C35.4675 43.4359 34.2105 43.9587 32.8222 44.2201C31.9165 44.3887 31.0023 44.4519 30.0839 44.4941C28.4205 44.57 26.7741 44.747 25.1531 45.1265C25.0092 45.1813 24.8484 45.2656 24.8484 44.9916Z" fill="white"/>
<path d="M40.5211 17.4452C41.1305 17.5717 41.6892 17.8373 42.2733 18.0439C43.0182 18.3053 43.1071 18.2504 43.1621 17.4368C43.2002 16.8466 43.2171 16.2521 43.3652 15.6746C43.8181 15.7884 43.4245 16.21 43.6319 16.4123C43.6911 16.8255 43.7461 17.2429 43.8054 17.656C43.9197 18.4528 44.3768 19.0599 44.9058 19.6248C45.528 20.2909 46.1501 20.9612 46.7723 21.6316C46.8146 21.7791 46.7554 21.8213 46.6157 21.7833C46.1036 21.3913 45.6084 20.9781 45.0794 20.6113C44.6011 20.2741 44.381 20.3837 44.3091 20.9739C44.2667 21.3154 44.2667 21.6653 44.2667 22.011C44.2667 22.7319 44.1398 23.4359 43.9366 24.1273C43.4964 23.7816 43.7927 23.339 43.78 22.9385C43.7419 22.323 43.7165 21.7074 43.67 21.0961C43.5895 20.097 43.1071 19.3339 42.2817 18.769C41.6299 18.3221 40.9316 17.9511 40.2333 17.5801C40.2248 17.3103 40.3729 17.3693 40.5253 17.4452H40.5211Z" fill="white"/>
<path d="M9.31543 15.6619C9.26464 15.7589 9.21386 15.8558 9.15883 15.957C8.78215 15.4638 8.52397 14.8988 8.2404 14.3508C8.18115 14.1864 8.26157 14.1569 8.40124 14.1822C8.71443 14.667 9.08688 15.1181 9.3112 15.6619H9.31543Z" fill="white"/>
<path d="M8.40544 14.1822C8.35042 14.237 8.29539 14.296 8.24461 14.3508C7.88062 13.8238 7.58012 13.2589 7.30078 12.6855C7.37273 12.6307 7.43622 12.6392 7.49547 12.7108C7.8002 13.1999 8.16419 13.6552 8.40967 14.1864L8.40544 14.1822Z" fill="white"/>
<path d="M43.7758 22.9384C43.9154 23.3221 43.6869 23.7563 43.9324 24.1273C43.8943 24.4224 43.8096 24.6922 43.4668 25.021C43.725 24.2453 43.598 23.575 43.7758 22.9342V22.9384Z" fill="white"/>
<path d="M2.73828 3.0228C2.68326 3.08182 2.624 3.14084 2.56898 3.19986C2.20923 2.90054 1.96375 2.50846 1.68441 2.14168C1.62939 1.99413 1.70134 1.96462 1.83254 1.98991C2.14151 2.32718 2.50126 2.62229 2.73828 3.02701V3.0228Z" fill="white"/>
<path d="M1.83251 1.98983C1.78172 2.04042 1.73517 2.09101 1.68438 2.1416C1.32886 1.7959 0.998731 1.42912 0.774414 0.98224C0.791344 0.96116 0.808273 0.944297 0.829435 0.923218C1.23575 1.2099 1.54471 1.58932 1.83675 1.98561L1.83251 1.98983Z" fill="white"/>
<path d="M26.1859 51.973C26.3002 52.0278 26.4144 52.0784 26.5287 52.1332C26.1393 52.344 25.7119 52.5084 25.5595 52.9848C25.4198 53.0059 25.3309 52.9848 25.4071 52.8119C25.5129 52.3903 25.7753 52.1121 26.1859 51.9688V51.973Z" fill="white"/>
<path d="M21.4412 13.1155C21.2804 13.1787 21.0899 13.1492 20.9545 13.2841C20.5905 13.3389 20.2646 13.1408 19.9133 13.1281C19.8075 13.086 19.8075 13.0396 19.9133 12.9932C20.4297 12.9679 20.946 12.9047 21.4455 13.1155H21.4412Z" fill="white"/>
<path d="M43.6317 16.4123C43.437 16.2057 43.5513 15.8853 43.3651 15.6745C43.2931 15.4047 43.4751 15.1813 43.5048 14.9283C43.5598 14.8777 43.619 14.8735 43.6783 14.9283C43.6614 15.4258 43.6444 15.9191 43.6317 16.4165V16.4123Z" fill="white"/>
<path d="M25.407 52.8162C25.4578 52.8752 25.5086 52.93 25.5594 52.989C25.5425 53.2377 25.5171 53.4865 25.5933 53.731C25.6398 53.8111 25.6441 53.8954 25.5975 53.9755C25.3139 53.6256 25.1277 53.2588 25.407 52.8162Z" fill="white"/>
<path d="M0.567216 0.796808C0.321737 0.594447 0.08049 0.396302 0.0550957 0.0463867L0.0466309 0.0548184C0.376758 0.223452 0.601075 0.493267 0.778836 0.80524C0.706885 0.843183 0.634934 0.838967 0.567216 0.792592V0.796808Z" fill="white"/>
<path d="M40.521 17.4452C40.4236 17.4916 40.3263 17.5338 40.229 17.5801C39.9708 17.5169 39.7295 17.4157 39.4756 17.1881C39.9031 17.1375 40.2163 17.2808 40.5252 17.4452H40.521Z" fill="white"/>
<path d="M46.6114 21.7834C46.6622 21.7328 46.7172 21.6822 46.768 21.6316C47.0473 21.8171 47.2251 22.0911 47.4071 22.3609C47.3478 22.4284 47.2844 22.4326 47.2166 22.3736C47.0008 22.1923 46.7511 22.0405 46.6072 21.7834H46.6114Z" fill="white"/>
<path d="M7.03434 12.247C6.92429 12.129 6.82272 12.0025 6.84388 11.7706C7.07666 11.8634 7.11898 12.0784 7.22056 12.2386C7.16131 12.3313 7.09782 12.3356 7.03434 12.247Z" fill="white"/>
<path d="M48.262 29.2116C48.4143 29.1568 48.3762 29.0008 48.4313 28.8954C48.5582 29.0809 48.6175 29.2748 48.5286 29.4983C48.3593 29.473 48.2789 29.376 48.262 29.2158V29.2116Z" fill="white"/>
<path d="M7.03418 12.2471C7.09767 12.2471 7.15692 12.2429 7.2204 12.2386C7.31352 12.3946 7.4024 12.5506 7.49551 12.7024C7.43202 12.694 7.36854 12.6855 7.30082 12.6771C7.14422 12.5717 7.08497 12.4115 7.03418 12.2429V12.2471Z" fill="white"/>
<path d="M43.6784 14.9241C43.6192 14.9241 43.5641 14.9241 43.5049 14.9241C43.4795 14.7512 43.6022 14.6247 43.6446 14.473C43.6996 14.4055 43.7546 14.4097 43.8139 14.473C43.8096 14.6332 43.8266 14.8018 43.6784 14.9199V14.9241Z" fill="white"/>
<path d="M24.8483 44.9915C24.9499 45.0379 25.0515 45.0801 25.153 45.1264C25.0345 45.2487 24.8737 45.2698 24.7129 45.2866C24.5436 45.3499 24.5182 45.2613 24.5436 45.1222C24.6452 45.0758 24.7467 45.0337 24.8483 44.9873V44.9915Z" fill="white"/>
<path d="M47.2209 22.3735C47.2844 22.3735 47.3479 22.3651 47.4114 22.3608C47.5299 22.4283 47.7034 22.5506 47.5553 22.6433C47.4241 22.7276 47.3014 22.5126 47.2209 22.3735Z" fill="white"/>
<path d="M24.2347 28.7564C23.9553 28.7564 23.6802 28.7522 23.4263 28.6215C23.7056 28.6046 23.9934 28.5498 24.2347 28.7564Z" fill="white"/>
<path d="M25.6019 53.9756C25.6019 53.8955 25.6019 53.8112 25.5977 53.7311C25.7627 53.8618 25.9405 53.984 26.0251 54.1864L26.0336 54.178C25.8474 54.2033 25.695 54.1485 25.6019 53.9714V53.9756Z" fill="white"/>
<path d="M24.5437 45.1265C24.5987 45.1813 24.658 45.2361 24.713 45.2909C24.6749 45.3204 24.641 45.3583 24.5987 45.3752C24.4929 45.4216 24.3405 45.4764 24.3024 45.3415C24.2686 45.2192 24.4294 45.1686 24.5395 45.1265H24.5437Z" fill="white"/>
<path d="M43.8138 14.4772C43.7588 14.4772 43.6996 14.4772 43.6445 14.4772C43.6572 14.4351 43.6657 14.3845 43.6869 14.3465C43.7334 14.2749 43.7884 14.1357 43.8688 14.1948C43.9958 14.2833 43.8858 14.3929 43.8138 14.4772Z" fill="white"/>
<path d="M39.9242 58.9545C39.9242 58.8955 39.9158 58.8365 39.9158 58.7774C40.0047 58.6552 40.1782 58.5498 40.2332 58.6973C40.2967 58.8575 40.0851 58.9292 39.9242 58.9545Z" fill="white"/>
<path d="M37.2366 35.2908C37.1774 35.3499 37.1223 35.4089 37.0631 35.4679C36.9404 35.333 36.9192 35.1686 36.9065 34.9999C36.9657 34.9367 37.025 34.9367 37.08 34.9999C37.1308 35.0969 37.1858 35.1939 37.2366 35.2951V35.2908Z" fill="white"/>
<path d="M37.08 35C37.0208 35 36.9615 35 36.9065 35C36.8345 34.9662 36.788 34.8777 36.8515 34.844C36.9869 34.7723 37.0504 34.8777 37.0843 35H37.08Z" fill="white"/>
<path d="M24.6663 28.9545C24.5097 28.9165 24.3531 28.8744 24.2346 28.7563C24.4124 28.7479 24.5732 28.7859 24.6663 28.9545Z" fill="white"/>
<path d="M19.9092 12.9932C19.905 13.0396 19.9092 13.0818 19.9092 13.1281C19.8246 13.1281 19.7018 13.1745 19.7145 13.0312C19.7188 12.9679 19.833 12.9679 19.905 12.9932H19.9092Z" fill="white"/>
<path d="M0.567221 0.796753C0.639171 0.800969 0.711122 0.805185 0.778841 0.8094C0.808467 0.843127 0.821165 0.885286 0.825397 0.927444C0.800003 0.935876 0.778841 0.956955 0.770376 0.986466C0.702657 0.923228 0.630707 0.859991 0.562988 0.796753H0.567221Z" fill="white"/>
<path d="M0.0550212 0.046714L0 0.0298506C0.00846479 -0.0165238 0.0253944 -0.00809207 0.0465564 0.0593616L0.0550212 0.0509298V0.046714Z" fill="white"/>
<path d="M26.0249 54.1863L26.0588 54.2201L26.0334 54.1821L26.0249 54.1863Z" fill="white"/>
<path d="M249.648 50.2488C249.534 50.2066 249.411 50.1729 249.288 50.156C248.378 50.038 247.765 49.5237 247.274 48.7775C246.618 47.7741 246.097 46.7075 245.665 45.6029C243.621 40.3921 241.585 35.1771 239.55 29.9663C238.648 27.6603 237.751 25.3542 236.849 23.0481C236.574 22.3483 236.447 22.2766 235.74 22.5464C235.254 22.7319 234.805 23.0102 234.323 23.1999C233.865 23.377 233.633 23.7016 233.455 24.14C230.509 31.4967 227.551 38.8449 224.592 46.1974C224.271 47.0026 223.932 47.7994 223.466 48.5372C222.929 49.3888 222.281 50.0633 221.206 50.1813C220.986 50.2066 220.77 50.2952 220.601 50.4511C220.398 50.6409 220.36 50.8812 220.415 51.1341C220.474 51.4166 220.72 51.425 220.944 51.4419C221.117 51.4545 221.291 51.4503 221.465 51.4419C224.203 51.366 226.937 51.3786 229.675 51.3786C229.823 51.3786 229.976 51.3829 230.124 51.3786C230.437 51.3618 230.56 51.1721 230.547 50.8854C230.53 50.5312 230.374 50.2657 230.001 50.1813C229.735 50.1223 229.464 50.0759 229.197 50.0211C228.021 49.764 227.419 49.0051 227.424 47.7994C227.424 47.3989 227.504 47.0068 227.618 46.6274C228.118 44.941 228.715 43.2884 229.294 41.6316C229.426 41.2564 229.625 41.1468 230.001 41.1468C231.119 41.1552 232.24 41.1257 233.362 41.1257C235.203 41.1215 237.044 41.1257 238.885 41.1257C239.283 41.1257 239.613 41.1889 239.803 41.6021C240.629 43.4022 241.399 45.2277 242.004 47.1164C242.123 47.4832 242.076 47.8415 241.924 48.2041C241.45 49.3002 240.747 50.0759 239.452 50.1645C238.86 50.2066 238.699 50.4596 238.754 50.9866C238.809 51.5473 239.241 51.3786 239.554 51.3786C241.171 51.3913 242.787 51.3829 244.404 51.3829V51.3702C246.097 51.3702 247.79 51.3702 249.479 51.3702C249.737 51.3702 249.982 51.3786 250.033 51.0287C250.088 50.6409 249.97 50.3795 249.64 50.253L249.648 50.2488ZM230.539 38.027C231.11 36.3997 231.656 34.8356 232.202 33.2758C232.735 31.7581 233.269 30.2446 233.802 28.7311C233.87 28.5456 233.937 28.3601 234.018 28.1788C234.128 27.9343 234.272 27.9849 234.394 28.1662C234.462 28.2673 234.517 28.3812 234.564 28.495C235.846 31.6316 237.124 34.7682 238.398 37.9048C238.415 37.9512 238.415 38.0017 238.424 38.0481C237.759 38.3137 231.639 38.3137 230.535 38.027H230.539Z" fill="white"/>
<path d="M274.226 27.6813C273.612 25.9865 272.465 24.7133 270.907 23.8069C269.595 23.0439 268.165 22.6518 266.666 22.5127C264.83 22.344 262.989 22.3946 261.152 22.441C258.642 22.5042 256.132 22.6433 253.631 22.8457C252.92 22.9047 252.763 23.124 252.915 23.7142C253 24.0346 253.254 24.043 253.483 24.1105C254.1 24.2875 254.74 24.4182 255.345 24.629C256.001 24.8609 256.394 25.312 256.445 26.0624C256.496 26.855 256.543 27.6433 256.547 28.4359C256.547 33.516 256.564 38.5919 256.547 43.672C256.547 45.0084 256.572 46.3449 256.462 47.6813C256.373 48.7901 255.806 49.4604 254.816 49.8398C254.35 50.0169 253.868 50.1433 253.411 50.3246C253.025 50.4764 252.886 50.7799 252.954 51.1551C253.03 51.5894 253.368 51.5051 253.656 51.5051C255.497 51.5135 257.338 51.5135 259.179 51.5261C260.521 51.5346 261.867 51.5599 263.209 51.5641C263.827 51.5641 264.081 51.1889 263.848 50.6577C263.75 50.43 263.547 50.3499 263.327 50.2825C262.807 50.118 262.277 49.9747 261.774 49.7681C260.949 49.4351 260.475 48.8449 260.381 47.9216C260.25 46.6358 260.293 45.3499 260.271 44.0599C260.246 42.5 260.267 40.9401 260.267 39.355C260.555 39.3381 260.678 39.4815 260.813 39.5742C261.545 40.0759 262.362 40.3584 263.23 40.4933C264.584 40.6998 265.955 40.8052 267.318 40.6324C270.683 40.2024 273.1 38.4654 274.348 35.2993C275.347 32.7656 275.152 30.1939 274.242 27.6729L274.226 27.6813ZM270.535 34.6248C270.002 36.6653 268.503 37.7192 266.544 38.2041C265.283 38.516 264.004 38.6425 262.701 38.4444C262.028 38.3432 261.406 38.145 260.792 37.8499C260.407 37.6644 260.25 37.4452 260.259 37.0025C260.288 35.3204 260.271 33.6341 260.271 31.9519C260.271 31.9519 260.276 31.9519 260.28 31.9519C260.28 30.2698 260.263 28.5835 260.284 26.9014C260.301 25.6703 260.741 25.0675 261.935 24.7513C263.738 24.2707 265.532 24.3423 267.259 25.0759C268.525 25.6155 269.405 26.5767 269.98 27.8078C271 30.0084 271.14 32.2976 270.535 34.6206V34.6248Z" fill="white"/>
<path d="M20.8657 23.0692C16.519 18.2336 12.1681 13.398 7.80873 8.57507C6.12847 6.71588 4.43128 4.87355 2.73832 3.02701C2.59442 3.00171 2.52247 3.04809 2.56902 3.20407C2.70023 3.38536 2.82297 3.56664 2.96264 3.7437C5.3878 6.82127 7.75371 9.94522 10.1154 13.0734C12.9088 16.7749 15.5075 20.6198 18.3855 24.258C18.4786 24.3761 18.559 24.4983 18.631 24.629C18.8764 25.0675 18.8299 25.2319 18.4109 25.4722C17.5052 25.9865 16.3159 25.8137 15.609 25.0464C15.4228 24.8483 15.2662 24.6206 15.1138 24.3972C14.2208 23.086 13.3278 21.7749 12.4517 20.4511C11.3978 18.8617 10.3609 17.2597 9.31547 15.6661C9.05729 15.6577 9.04459 15.7757 9.15887 15.9612C9.36625 16.3533 9.56941 16.7496 9.78526 17.1417C11.2666 19.8314 12.7564 22.5211 14.1446 25.2614C14.4409 25.8474 14.5382 26.3786 14.0431 26.8972C13.0146 27.968 12.5744 29.296 12.4305 30.7294C12.1935 33.0818 11.3682 35.194 9.9207 37.0658C9.13347 38.086 8.35894 39.1189 7.56748 40.1349C6.29353 41.7622 5.95917 43.6088 6.28084 45.6071C6.49669 46.9478 7.02151 48.1661 7.71985 49.3213C8.27006 50.2277 8.93032 51.0793 9.21389 52.129C9.29854 52.4368 9.53132 52.3651 9.75987 52.3187C11.2497 52.0152 12.6972 51.581 14.0642 50.898C15.1181 50.371 16.0873 49.7302 16.8153 48.7816C17.7125 47.6181 17.6321 45.8263 16.6502 44.7344C16.1973 44.2327 15.6556 43.8364 15.1054 43.4528C14.5552 43.0692 14.0177 42.6687 13.5479 42.1838C12.422 41.0287 12.1131 39.6796 12.5829 38.1451C12.8241 37.3609 13.1923 36.6273 13.5352 35.8896C14.0388 34.8061 14.4621 33.6973 14.5975 32.5042C14.6821 31.7665 14.7414 31.0245 14.8514 30.2909C15.0165 29.1653 15.5371 28.6383 16.646 28.4106C17.2766 28.28 17.9199 28.183 18.5421 28.0144C19.5536 27.7403 20.4001 27.1965 21.035 26.3533C21.5259 25.6999 21.5936 24.9368 21.5852 24.1611C21.581 23.6594 21.1535 23.398 20.8657 23.0776V23.0692ZM9.56094 45.6788C9.24775 45.8305 8.93455 45.8305 8.65944 45.5945C8.38857 45.3584 8.4182 45.0843 8.5748 44.7934C8.68907 44.5784 8.8499 44.355 8.58326 44.1358C8.40973 43.9924 8.19811 43.8533 8.33778 43.5919C8.46899 43.3516 8.71447 43.2884 8.86683 43.2968C9.52709 43.28 10.0307 43.672 10.1704 44.2159C10.3143 44.7724 10.0392 45.4469 9.56094 45.6788Z" fill="white"/>
<path d="M25.7414 30.156C25.5001 29.6459 25.0896 29.296 24.6664 28.9545C24.5944 28.7353 24.3447 28.8955 24.2347 28.7564C23.9849 28.5835 23.6802 28.7564 23.4263 28.6215C21.6148 28.7058 20.6921 30.3036 20.9419 31.7243C21.0392 32.2808 21.3185 32.656 21.873 32.7319C23.0834 32.8963 24.2516 32.7403 25.2801 32.0321C25.9826 31.5473 26.1096 30.936 25.7414 30.156ZM23.4432 30.8137C23.1893 30.8053 22.9522 30.7294 22.7322 30.6071C22.4444 30.4469 22.1608 30.253 22.1904 29.8778C22.22 29.5321 22.4486 29.3086 22.7575 29.1484C22.9903 29.0304 23.2358 29.0304 23.4178 28.9882C24.1542 28.9882 24.7637 29.3972 24.7806 29.8694C24.7976 30.3331 24.0908 30.8306 23.4432 30.8095V30.8137Z" fill="white"/>
</g>
<defs>
<clipPath id="clip0_167_126">
<rect width="275" height="60" fill="white"/>
</clipPath>
</defs>
</svg>
