<svg width="27" height="20" viewBox="0 0 27 20" fill="none" xmlns="http://www.w3.org/2000/svg">
<path d="M20.5684 0C21.1363 0 21.6808 0.225568 22.0824 0.62708C22.4839 1.02859 22.7094 1.57316 22.7094 2.14099V17.1279C22.7094 17.6957 22.4839 18.2403 22.0824 18.6418C21.6808 19.0433 21.1363 19.2689 20.5684 19.2689H5.58154C5.01371 19.2689 4.46915 19.0433 4.06763 18.6418C3.66612 18.2403 3.44055 17.6957 3.44055 17.1279V2.14099C3.44055 1.57316 3.66612 1.02859 4.06763 0.62708C4.46915 0.225568 5.01371 0 5.58154 0H20.5684ZM20.0332 16.5926V10.919C20.0332 9.99348 19.6655 9.10583 19.0111 8.45137C18.3566 7.7969 17.4689 7.42922 16.5434 7.42922C15.6335 7.42922 14.5737 7.98588 14.0598 8.82087V7.63262H11.0732V16.5926H14.0598V11.3151C14.0598 10.4908 14.7236 9.81643 15.5478 9.81643C15.9453 9.81643 16.3265 9.97432 16.6076 10.2554C16.8886 10.5364 17.0465 10.9176 17.0465 11.3151V16.5926H20.0332ZM7.59407 5.95194C8.07104 5.95194 8.52848 5.76247 8.86575 5.4252C9.20302 5.08793 9.3925 4.63049 9.3925 4.15351C9.3925 3.15796 8.58963 2.34438 7.59407 2.34438C7.11425 2.34438 6.65409 2.53499 6.31482 2.87426C5.97554 3.21354 5.78493 3.6737 5.78493 4.15351C5.78493 5.14907 6.59851 5.95194 7.59407 5.95194ZM9.08205 16.5926V7.63262H6.11679V16.5926H9.08205Z" fill="white"/>
</svg>
