<svg width="87" height="65" viewBox="0 0 87 65" fill="none" xmlns="http://www.w3.org/2000/svg">
<g clip-path="url(#clip0_757_5452)">
<path fill-rule="evenodd" clip-rule="evenodd" d="M43.4021 26.0611C41.634 26.0611 40.2017 26.3903 38.6351 27.0514C37.0684 27.7124 35.7033 28.6159 34.5395 29.7618C33.3757 30.9077 32.4581 32.2519 31.7867 33.7945C31.1153 35.337 30.7684 36.9788 30.746 38.7196C30.746 40.769 30.2872 42.6862 29.3696 44.4711C28.4521 46.2561 27.1428 47.7656 25.4419 48.9996C26.449 49.5065 27.4002 50.1015 28.2954 50.7846C28.5711 50.9949 28.8393 51.2126 29.1001 51.4376C30.048 52.2553 29.8994 53.711 28.9039 54.4702V54.4702C28.0103 55.1517 26.7552 55.0143 25.8842 54.3041C25.0261 53.6043 24.0842 53.0261 23.0584 52.5695C21.4247 51.8423 19.6902 51.4677 17.855 51.4457C16.0646 51.4457 14.3973 51.7762 12.853 52.4373C11.3088 53.0984 9.9436 54.0019 8.75745 55.1478C7.5713 56.2937 6.64252 57.6489 5.97111 59.2135C5.58351 60.1167 5.30779 61.0457 5.14395 62.0003C4.94324 63.1698 4.00208 64.1387 2.8155 64.1387V64.1387C1.62891 64.1387 0.651168 63.1727 0.803531 61.996C0.914355 61.14 1.09264 60.3007 1.3384 59.478C1.786 57.9795 2.42384 56.5581 3.25191 55.2139C4.07998 53.8697 5.08709 52.6797 6.27324 51.644C7.45939 50.6083 8.77983 49.7158 10.2345 48.9666C8.57841 47.7766 7.29154 46.2892 6.37395 44.5042C5.45636 42.7192 4.98638 40.8021 4.964 38.7527C4.964 37.0118 5.2997 35.3701 5.97111 33.8276C6.64252 32.285 7.56011 30.9408 8.72388 29.7949C9.88765 28.649 11.2528 27.7345 12.8195 27.0514C14.3861 26.3682 16.0646 26.0377 17.855 26.0597C19.914 26.0597 21.8499 26.5115 23.6627 27.415C25.4755 28.3184 26.9973 29.5966 28.2283 31.2493C29.0787 29.5966 30.1641 28.1201 31.4846 26.82C32.805 25.5198 34.3157 24.44 36.0166 23.5806C34.3604 22.3906 33.0736 20.9032 32.156 19.1182C31.2384 17.3333 30.7684 15.4161 30.746 13.3667C30.746 11.6258 31.0817 9.98414 31.7531 8.44159C32.4245 6.89904 33.3421 5.55481 34.5059 4.40892C35.6697 3.26302 37.0349 2.34851 38.6015 1.66538C40.1681 0.982254 41.7795 0.650992 43.5699 0.673028C45.3603 0.650992 46.6696 0.982254 48.2362 1.66538C49.8028 2.34851 51.168 3.26302 52.3318 4.40892C53.4955 5.55481 54.4131 6.89904 55.0845 8.44159C55.7559 9.98414 56.0917 11.6258 56.0917 13.3667C56.0693 15.4161 55.5993 17.3333 54.6817 19.1182C53.7641 20.9032 52.4772 22.3906 50.8211 23.5806C52.522 24.44 54.0327 25.5198 55.3531 26.82C56.6735 28.1201 57.759 29.5966 58.6094 31.2493C59.8403 29.5966 61.3622 28.3184 63.175 27.415C64.9878 26.5115 66.9237 26.0597 68.9827 26.0597C70.7731 26.0377 72.4516 26.3682 74.0182 27.0514C75.5848 27.7345 76.95 28.649 78.1138 29.7949C79.2776 30.9408 80.1952 32.285 80.8666 33.8276C81.538 35.3701 81.8737 37.0118 81.8737 38.7527C81.8513 40.8021 81.3813 42.7192 80.4637 44.5042C79.5461 46.2892 78.2593 47.7766 76.6031 48.9666C78.0579 49.7158 79.3783 50.6083 80.5644 51.644C81.7506 52.6797 82.7577 53.8697 83.5858 55.2139C84.4138 56.5581 85.0517 57.9795 85.4993 59.478C85.745 60.3007 85.9233 61.14 86.0342 61.996C86.1865 63.1727 85.2088 64.1387 84.0222 64.1387V64.1387C82.8356 64.1387 81.8944 63.1698 81.6937 62.0003C81.5299 61.0457 81.2542 60.1167 80.8666 59.2135C80.1952 57.6489 79.2664 56.2937 78.0802 55.1478C76.8941 54.0019 75.5289 53.0984 73.9847 52.4373C72.4404 51.7762 70.7731 51.4457 68.9827 51.4457C67.1475 51.4677 65.413 51.8423 63.7793 52.5695C62.7535 53.0261 61.8116 53.6043 60.9535 54.3041C60.0825 55.0143 58.8274 55.1517 57.9337 54.4702V54.4702C56.9383 53.711 56.7896 52.2553 57.7375 51.4376C57.9984 51.2126 58.2666 50.9949 58.5423 50.7846C59.4375 50.1015 60.3887 49.5065 61.3958 48.9996C59.6949 47.7656 58.3856 46.2561 57.468 44.4711C56.5504 42.6862 56.0917 40.769 56.0917 38.7196C56.0693 36.9788 55.7224 35.337 55.051 33.7945C54.3796 32.2519 53.462 30.9077 52.2982 29.7618C51.1344 28.6159 49.7692 27.7124 48.2026 27.0514C46.636 26.3903 45.1701 26.0611 43.4021 26.0611ZM40.3136 5.56583C41.3431 5.1251 42.3334 4.90546 43.5196 4.90546C44.7057 4.90546 45.4946 5.1251 46.5241 5.56583C47.5536 6.00656 48.4712 6.61256 49.2769 7.38384C50.0826 8.15511 50.698 9.04759 51.1232 10.0613C51.5485 11.0749 51.7723 12.1768 51.7946 13.3667C51.7946 14.5347 51.5708 15.6255 51.1232 16.6391C50.6756 17.6528 50.0602 18.5563 49.2769 19.3496C48.4936 20.1429 47.5872 20.7489 46.5577 21.1676C45.5282 21.5863 44.6106 21.7999 43.4021 21.8219C42.1935 21.7999 41.3095 21.5863 40.28 21.1676C39.2505 20.7489 38.3441 20.1429 37.5608 19.3496C36.7775 18.5563 36.162 17.6528 35.7144 16.6391C35.2668 15.6255 35.043 14.5347 35.043 13.3667C35.0654 12.1768 35.2892 11.0749 35.7144 10.0613C36.1397 9.04759 36.7551 8.15511 37.5608 7.38384C38.3665 6.61256 39.2841 6.00656 40.3136 5.56583ZM21.1785 46.5536C20.149 46.9943 19.0412 47.2147 17.855 47.2147C16.6465 47.1926 15.5275 46.9723 14.498 46.5536C13.4685 46.1349 12.5621 45.5289 11.7788 44.7356C10.9955 43.9423 10.38 43.0388 9.93241 42.0251C9.48481 41.0114 9.261 39.9206 9.261 38.7527C9.28338 37.5627 9.50719 36.4609 9.93241 35.4472C10.3576 34.4336 10.9731 33.5411 11.7788 32.7698C12.5845 31.9985 13.5021 31.3925 14.5315 30.9518C15.561 30.5111 16.6689 30.2907 17.855 30.2907C19.0188 30.2687 20.1378 30.489 21.2121 30.9518C22.2863 31.4146 23.2039 32.0206 23.9648 32.7698C24.7257 33.519 25.33 34.4115 25.7776 35.4472C26.2252 36.4829 26.449 37.5848 26.449 38.7527C26.4266 39.9427 26.2028 41.0445 25.7776 42.0582C25.3524 43.0718 24.7369 43.9643 23.9312 44.7356C23.1256 45.5069 22.208 46.1129 21.1785 46.5536ZM65.6592 46.5536C66.6887 46.9943 67.7965 47.2147 68.9827 47.2147C70.1912 47.1926 71.3102 46.9723 72.3397 46.5536C73.3692 46.1349 74.2756 45.5289 75.0589 44.7356C75.8422 43.9423 76.4577 43.0388 76.9053 42.0251C77.3529 41.0114 77.5767 39.9206 77.5767 38.7527C77.5543 37.5627 77.3305 36.4609 76.9053 35.4472C76.48 34.4336 75.8646 33.5411 75.0589 32.7698C74.2532 31.9985 73.3356 31.3925 72.3061 30.9518C71.2766 30.5111 70.1688 30.2907 68.9827 30.2907C67.8189 30.2687 66.6999 30.489 65.6256 30.9518C64.5514 31.4146 63.6338 32.0206 62.8729 32.7698C62.1119 33.519 61.5077 34.4115 61.0601 35.4472C60.6125 36.4829 60.3887 37.5848 60.3887 38.7527C60.411 39.9427 60.6348 41.0445 61.0601 42.0582C61.4853 43.0718 62.1007 43.9643 62.9064 44.7356C63.7121 45.5069 64.6297 46.1129 65.6592 46.5536Z" fill="url(#paint0_linear_757_5452)"/>
</g>
<defs>
<linearGradient id="paint0_linear_757_5452" x1="31.3368" y1="2.25866" x2="52.0379" y2="64.5988" gradientUnits="userSpaceOnUse">
<stop stop-color="#08F7DB"/>
<stop offset="1" stop-color="#0F81F0"/>
</linearGradient>
<clipPath id="clip0_757_5452">
<rect width="85.5037" height="63.4667" fill="white" transform="translate(0.666992 0.671997)"/>
</clipPath>
</defs>
</svg>
