<svg width="27" height="20" viewBox="0 0 27 20" fill="none" xmlns="http://www.w3.org/2000/svg">
<path d="M22.1267 1.60136C20.4705 0.854888 18.6772 0.313093 16.8093 5.53814e-05C16.7929 -0.000451021 16.7766 0.00252053 16.7616 0.00876114C16.7465 0.0150018 16.733 0.0243599 16.7221 0.0361753C16.498 0.433492 16.2365 0.951207 16.0621 1.34852C14.0808 1.05957 12.0659 1.05957 10.0847 1.34852C9.91032 0.939167 9.64881 0.433492 9.4122 0.0361753C9.39975 0.0120955 9.36239 5.53814e-05 9.32503 5.53814e-05C7.45707 0.313093 5.67629 0.854888 4.00759 1.60136C3.99513 1.60136 3.98268 1.6134 3.97023 1.62544C0.583006 6.52568 -0.350971 11.2935 0.109791 16.0131C0.109791 16.0372 0.122244 16.0613 0.14715 16.0733C2.38869 17.6626 4.54307 18.6258 6.67253 19.2639C6.70989 19.2759 6.74725 19.2639 6.7597 19.2398C7.25782 18.5776 7.70613 17.8793 8.09218 17.1449C8.11708 17.0967 8.09218 17.0486 8.04237 17.0365C7.33254 16.7716 6.66008 16.4586 6.00007 16.0974C5.95026 16.0733 5.95026 16.0011 5.98762 15.965C6.1246 15.8686 6.26158 15.7603 6.39857 15.664C6.42347 15.6399 6.46083 15.6399 6.48574 15.6519C10.7696 17.5422 15.3896 17.5422 19.6237 15.6519C19.6486 15.6399 19.6859 15.6399 19.7108 15.664C19.8478 15.7723 19.9848 15.8686 20.1218 15.977C20.1716 16.0131 20.1716 16.0854 20.1093 16.1094C19.4618 16.4827 18.7769 16.7837 18.067 17.0486C18.0172 17.0606 18.0048 17.1208 18.0172 17.1569C18.4157 17.8913 18.864 18.5897 19.3497 19.2519C19.3871 19.2639 19.4244 19.2759 19.4618 19.2639C21.6037 18.6258 23.7581 17.6626 25.9996 16.0733C26.0245 16.0613 26.037 16.0372 26.037 16.0131C26.5849 10.559 25.1279 5.82737 22.1765 1.62544C22.1641 1.6134 22.1516 1.60136 22.1267 1.60136ZM8.73974 13.1356C7.45707 13.1356 6.38611 11.9918 6.38611 10.5831C6.38611 9.17446 7.43217 8.03067 8.73974 8.03067C10.0598 8.03067 11.1058 9.1865 11.0934 10.5831C11.0934 11.9918 10.0473 13.1356 8.73974 13.1356ZM17.4195 13.1356C16.1368 13.1356 15.0659 11.9918 15.0659 10.5831C15.0659 9.17446 16.1119 8.03067 17.4195 8.03067C18.7395 8.03067 19.7856 9.1865 19.7731 10.5831C19.7731 11.9918 18.7395 13.1356 17.4195 13.1356Z" fill="white"/>
</svg>
