<svg width="50" height="50" viewBox="0 0 50 50" fill="none" xmlns="http://www.w3.org/2000/svg">
<path d="M25 6.85915C25 3.99661 27.2883 1.67606 30.1111 1.67606C32.9339 1.67606 35.2222 3.99661 35.2222 6.85915V9.4507C35.2222 10.882 36.3664 12.0423 37.7778 12.0423H45.4444C46.8558 12.0423 48 13.2025 48 14.6338V22.4085C48 23.8397 46.8558 25 45.4444 25H42.8889C40.0661 25 37.7778 27.3206 37.7778 30.1831C37.7778 33.0456 40.0661 35.3662 42.8889 35.3662H45.4444C46.8558 35.3662 48 36.5265 48 37.9577V45.7324C48 47.1637 46.8558 48.3239 45.4444 48.3239H37.7778C36.3664 48.3239 35.2222 47.1637 35.2222 45.7324V43.1408C35.2222 40.2783 32.9339 37.9577 30.1111 37.9577C27.2883 37.9577 25 40.2783 25 43.1408V45.7324C25 47.1637 23.8558 48.3239 22.4444 48.3239H14.7778C13.3664 48.3239 12.2222 47.1637 12.2222 45.7324V37.9577C12.2222 36.5265 11.0781 35.3662 9.66667 35.3662H7.11111C4.28832 35.3662 2 33.0456 2 30.1831C2 27.3206 4.28832 25 7.11111 25H9.66667C11.0781 25 12.2222 23.8397 12.2222 22.4085V14.6338C12.2222 13.2025 13.3664 12.0423 14.7778 12.0423H22.4444C23.8558 12.0423 25 10.882 25 9.4507V6.85915Z" fill="#050D1A" stroke="url(#paint0_linear_858_92)" stroke-width="2.59155" stroke-linecap="round" stroke-linejoin="round"/>
<defs>
<linearGradient id="paint0_linear_858_92" x1="-12.6832" y1="1.67606" x2="66.5979" y2="70.9334" gradientUnits="userSpaceOnUse">
<stop offset="0.194158" stop-color="#08F7DB"/>
<stop offset="1" stop-color="#0F81F0"/>
</linearGradient>
</defs>
</svg>
