<svg width="50" height="50" viewBox="0 0 50 50" fill="none" xmlns="http://www.w3.org/2000/svg">
<path fill-rule="evenodd" clip-rule="evenodd" d="M24.9925 22.1805C24.2068 22.1805 23.5702 22.3268 22.874 22.6206C22.1777 22.9144 21.571 23.3159 21.0538 23.8252C20.5366 24.3345 20.1288 24.9319 19.8304 25.6174C19.532 26.303 19.3778 27.0326 19.3679 27.8063C19.3679 28.7171 19.164 29.5691 18.7562 30.3624C18.3484 31.1557 17.7665 31.8265 17.0106 32.3749C17.4582 32.6002 17.8809 32.8646 18.2787 33.1682C18.4013 33.2617 18.5205 33.3585 18.6364 33.4585C19.0577 33.8219 18.9916 34.4688 18.5492 34.8062V34.8062C18.152 35.1091 17.5943 35.048 17.2072 34.7324C16.8258 34.4214 16.4072 34.1644 15.9513 33.9615C15.2252 33.6383 14.4544 33.4718 13.6388 33.462C12.8431 33.462 12.1021 33.6089 11.4158 33.9027C10.7295 34.1965 10.1228 34.5981 9.5956 35.1073C9.06844 35.6166 8.65567 36.2189 8.35728 36.9143C8.18502 37.3157 8.06249 37.7285 7.98967 38.1528C7.90047 38.6725 7.4822 39.1031 6.95485 39.1031V39.1031C6.4275 39.1031 5.99297 38.6738 6.06068 38.1508C6.10993 37.7704 6.18917 37.3974 6.29839 37.0318C6.49732 36.3658 6.78079 35.7341 7.1488 35.1367C7.51682 34.5393 7.9644 34.0105 8.49156 33.5502C9.01871 33.0899 9.60555 32.6932 10.2521 32.3603C9.51603 31.8314 8.94411 31.1703 8.53632 30.3771C8.12852 29.5838 7.91964 28.7318 7.9097 27.821C7.9097 27.0473 8.05889 26.3176 8.35728 25.6321C8.65567 24.9465 9.06347 24.3491 9.58068 23.8399C10.0979 23.3306 10.7046 22.9242 11.4009 22.6206C12.0971 22.317 12.8431 22.1701 13.6388 22.1799C14.5538 22.1799 15.4142 22.3806 16.2199 22.7822C17.0255 23.1837 17.7019 23.7517 18.2489 24.4863C18.6269 23.7517 19.1093 23.0956 19.6961 22.5178C20.2829 21.9399 20.9543 21.46 21.7102 21.0781C20.9742 20.5493 20.4023 19.8882 19.9945 19.0949C19.5867 18.3016 19.3778 17.4496 19.3679 16.5388C19.3679 15.7651 19.5171 15.0355 19.8155 14.3499C20.1138 13.6644 20.5216 13.067 21.0389 12.5577C21.5561 12.0485 22.1628 11.642 22.859 11.3384C23.5553 11.0348 24.2714 10.8876 25.0671 10.8974C25.8628 10.8876 26.4447 11.0348 27.1409 11.3384C27.8372 11.642 28.4439 12.0485 28.9611 12.5577C29.4783 13.067 29.8861 13.6644 30.1845 14.3499C30.4829 15.0355 30.6321 15.7651 30.6321 16.5388C30.6221 17.4496 30.4133 18.3016 30.0055 19.0949C29.5977 19.8882 29.0258 20.5493 28.2897 21.0781C29.0457 21.46 29.717 21.9399 30.3039 22.5178C30.8907 23.0956 31.3731 23.7517 31.7511 24.4863C32.2981 23.7517 32.9745 23.1837 33.7801 22.7822C34.5858 22.3806 35.4461 22.1799 36.3612 22.1799C37.1569 22.1701 37.9029 22.317 38.5991 22.6206C39.2954 22.9242 39.9021 23.3306 40.4193 23.8399C40.9365 24.3491 41.3443 24.9465 41.6427 25.6321C41.9411 26.3176 42.0903 27.0473 42.0903 27.821C42.0803 28.7318 41.8715 29.5838 41.4637 30.3771C41.0559 31.1703 40.4839 31.8314 39.7479 32.3603C40.3944 32.6932 40.9813 33.0899 41.5084 33.5502C42.0356 34.0105 42.4832 34.5393 42.8512 35.1367C43.2192 35.7341 43.5027 36.3658 43.7016 37.0318C43.8108 37.3974 43.89 37.7704 43.9393 38.1508C44.007 38.6738 43.5725 39.1031 43.0451 39.1031V39.1031C42.5178 39.1031 42.0995 38.6725 42.0103 38.1528C41.9375 37.7285 41.8149 37.3157 41.6427 36.9143C41.3443 36.2189 40.9315 35.6166 40.4044 35.1073C39.8772 34.5981 39.2705 34.1965 38.5842 33.9027C37.8979 33.6089 37.1569 33.462 36.3612 33.462C35.5456 33.4718 34.7747 33.6383 34.0487 33.9615C33.5928 34.1644 33.1742 34.4214 32.7928 34.7324C32.4057 35.048 31.8479 35.1091 31.4508 34.8062V34.8062C31.0084 34.4688 30.9423 33.8219 31.3636 33.4585C31.4795 33.3585 31.5987 33.2617 31.7212 33.1682C32.1191 32.8646 32.5418 32.6002 32.9894 32.3749C32.2335 31.8265 31.6516 31.1557 31.2438 30.3624C30.836 29.5691 30.6321 28.7171 30.6321 27.8063C30.6221 27.0326 30.468 26.303 30.1696 25.6174C29.8712 24.9319 29.4634 24.3345 28.9462 23.8252C28.429 23.3159 27.8223 22.9144 27.126 22.6206C26.4298 22.3268 25.7783 22.1805 24.9925 22.1805ZM23.6199 13.0719C24.0775 12.876 24.5176 12.7784 25.0447 12.7784C25.5719 12.7784 25.9225 12.876 26.38 13.0719C26.8376 13.2678 27.2454 13.5371 27.6034 13.8799C27.9615 14.2226 28.235 14.6193 28.424 15.0698C28.613 15.5203 28.7125 16.0099 28.7224 16.5388C28.7224 17.0579 28.6229 17.5426 28.424 17.9931C28.2251 18.4436 27.9516 18.8452 27.6034 19.1977C27.2553 19.5503 26.8525 19.8196 26.395 20.0057C25.9374 20.1918 25.5296 20.2867 24.9925 20.2965C24.4554 20.2867 24.0625 20.1918 23.605 20.0057C23.1475 19.8196 22.7447 19.5503 22.3965 19.1977C22.0484 18.8452 21.7749 18.4436 21.576 17.9931C21.377 17.5426 21.2776 17.0579 21.2776 16.5388C21.2875 16.0099 21.387 15.5203 21.576 15.0698C21.7649 14.6193 22.0385 14.2226 22.3965 13.8799C22.7546 13.5371 23.1624 13.2678 23.6199 13.0719ZM15.1158 31.2879C14.6583 31.4837 14.1659 31.5817 13.6388 31.5817C13.1017 31.5719 12.6044 31.4739 12.1468 31.2879C11.6893 31.1018 11.2865 30.8325 10.9384 30.4799C10.5902 30.1273 10.3167 29.7258 10.1178 29.2753C9.91886 28.8248 9.81939 28.34 9.81939 27.821C9.82934 27.2921 9.9288 26.8024 10.1178 26.3519C10.3068 25.9014 10.5803 25.5048 10.9384 25.162C11.2964 24.8192 11.7042 24.5499 12.1618 24.354C12.6193 24.1582 13.1116 24.0602 13.6388 24.0602C14.156 24.0504 14.6533 24.1484 15.1307 24.354C15.6082 24.5597 16.016 24.829 16.3541 25.162C16.6923 25.495 16.9609 25.8916 17.1598 26.3519C17.3587 26.8122 17.4582 27.3019 17.4582 27.821C17.4482 28.3498 17.3488 28.8395 17.1598 29.29C16.9708 29.7405 16.6973 30.1371 16.3392 30.4799C15.9811 30.8227 15.5733 31.092 15.1158 31.2879ZM34.8842 31.2879C35.3417 31.4837 35.834 31.5817 36.3612 31.5817C36.8983 31.5719 37.3956 31.4739 37.8531 31.2879C38.3107 31.1018 38.7135 30.8325 39.0616 30.4799C39.4097 30.1273 39.6833 29.7258 39.8822 29.2753C40.0811 28.8248 40.1806 28.34 40.1806 27.821C40.1706 27.2921 40.0712 26.8024 39.8822 26.3519C39.6932 25.9014 39.4197 25.5048 39.0616 25.162C38.7035 24.8192 38.2957 24.5499 37.8382 24.354C37.3807 24.1582 36.8883 24.0602 36.3612 24.0602C35.844 24.0504 35.3467 24.1484 34.8692 24.354C34.3918 24.5597 33.984 24.829 33.6458 25.162C33.3077 25.495 33.0391 25.8916 32.8402 26.3519C32.6413 26.8122 32.5418 27.3019 32.5418 27.821C32.5517 28.3498 32.6512 28.8395 32.8402 29.29C33.0292 29.7405 33.3027 30.1371 33.6608 30.4799C34.0188 30.8227 34.4266 31.092 34.8842 31.2879Z" fill="url(#paint0_linear_858_94)"/>
<defs>
<linearGradient id="paint0_linear_858_94" x1="19.6304" y1="11.6021" x2="28.8305" y2="39.3076" gradientUnits="userSpaceOnUse">
<stop stop-color="#08F7DB"/>
<stop offset="1" stop-color="#0F81F0"/>
</linearGradient>
</defs>
</svg>
