<svg width="50" height="50" viewBox="0 0 50 50" fill="none" xmlns="http://www.w3.org/2000/svg">
<path d="M40.532 41.9934C34.6104 48.0631 21.4955 50.1428 11.239 46.6384C1.9918 43.4789 -0.068583 37.8632 0.514815 31.1391C0.917347 30.5147 2.8073 29.9003 3.39 29.303C9.31158 23.2333 22.4265 21.1537 32.683 24.658C37.1334 26.1786 41.6528 28.5007 43.3442 31.1383C43.3442 36.3678 43.8841 38.5574 40.532 41.9934Z" fill="#D9D9D9"/>
<path d="M40.532 41.9934C34.6104 48.0631 21.4955 50.1428 11.239 46.6384C1.9918 43.4789 -0.068583 37.8632 0.514815 31.1391C0.917347 30.5147 2.8073 29.9003 3.39 29.303C9.31158 23.2333 22.4265 21.1537 32.683 24.658C37.1334 26.1786 41.6528 28.5007 43.3442 31.1383C43.3442 36.3678 43.8841 38.5574 40.532 41.9934Z" fill="url(#paint0_linear_858_93)"/>
<path d="M40.532 41.9934C34.6104 48.0631 21.4955 50.1428 11.239 46.6384C1.9918 43.4789 -0.068583 37.8632 0.514815 31.1391C0.917347 30.5147 2.8073 29.9003 3.39 29.303C9.31158 23.2333 22.4265 21.1537 32.683 24.658C37.1334 26.1786 41.6528 28.5007 43.3442 31.1383C43.3442 36.3678 43.8841 38.5574 40.532 41.9934Z" fill="url(#paint1_linear_858_93)"/>
<ellipse cx="19.6251" cy="15.354" rx="19.6251" ry="15.354" transform="matrix(0.946289 0.323321 -0.698318 0.715787 14.115 14.8271)" fill="#D9D9D9"/>
<ellipse cx="19.6251" cy="15.354" rx="19.6251" ry="15.354" transform="matrix(0.946289 0.323321 -0.698318 0.715787 14.115 14.8271)" fill="url(#paint2_linear_858_93)"/>
<ellipse cx="16.212" cy="12.6837" rx="16.212" ry="12.6837" transform="matrix(0.946289 0.323321 -0.698318 0.715787 15.4774 17.8417)" fill="#050D1A"/>
<path d="M41.2791 32.5299C35.3575 38.5996 22.2426 40.6792 11.9861 37.1749C2.73887 34.0154 0.678487 28.3996 1.26189 21.6756C1.66442 21.0512 3.55437 20.4368 4.13707 19.8395C10.0586 13.7698 23.1736 11.6901 33.43 15.1945C37.8805 16.7151 42.3998 19.0372 44.0913 21.6748C44.0913 26.9043 44.6312 29.0939 41.2791 32.5299Z" fill="#D9D9D9"/>
<path d="M41.2791 32.5299C35.3575 38.5996 22.2426 40.6792 11.9861 37.1749C2.73887 34.0154 0.678487 28.3996 1.26189 21.6756C1.66442 21.0512 3.55437 20.4368 4.13707 19.8395C10.0586 13.7698 23.1736 11.6901 33.43 15.1945C37.8805 16.7151 42.3998 19.0372 44.0913 21.6748C44.0913 26.9043 44.6312 29.0939 41.2791 32.5299Z" fill="url(#paint3_linear_858_93)"/>
<path d="M41.2791 32.5299C35.3575 38.5996 22.2426 40.6792 11.9861 37.1749C2.73887 34.0154 0.678487 28.3996 1.26189 21.6756C1.66442 21.0512 3.55437 20.4368 4.13707 19.8395C10.0586 13.7698 23.1736 11.6901 33.43 15.1945C37.8805 16.7151 42.3998 19.0372 44.0913 21.6748C44.0913 26.9043 44.6312 29.0939 41.2791 32.5299Z" fill="url(#paint4_linear_858_93)"/>
<ellipse cx="19.6251" cy="15.354" rx="19.6251" ry="15.354" transform="matrix(0.946289 0.323321 -0.698318 0.715787 14.8624 5.3638)" fill="#D9D9D9"/>
<ellipse cx="19.6251" cy="15.354" rx="19.6251" ry="15.354" transform="matrix(0.946289 0.323321 -0.698318 0.715787 14.8624 5.3638)" fill="url(#paint5_linear_858_93)"/>
<ellipse cx="16.212" cy="12.6837" rx="16.212" ry="12.6837" transform="matrix(0.946289 0.323321 -0.698318 0.715787 16.2249 8.37817)" fill="#050D1A"/>
<path d="M46.5096 24.5608C40.588 30.6305 27.473 32.7101 17.2166 29.2058C7.96934 26.0463 5.90896 20.4306 6.49235 13.7065C6.89489 13.0821 8.78484 12.4677 9.36753 11.8704C15.2891 5.80069 28.404 3.72105 38.6605 7.2254C43.1109 8.74599 47.6303 11.0681 49.3218 13.7057C49.3218 18.9352 49.8617 21.1248 46.5096 24.5608Z" fill="#D9D9D9"/>
<path d="M46.5096 24.5608C40.588 30.6305 27.473 32.7101 17.2166 29.2058C7.96934 26.0463 5.90896 20.4306 6.49235 13.7065C6.89489 13.0821 8.78484 12.4677 9.36753 11.8704C15.2891 5.80069 28.404 3.72105 38.6605 7.2254C43.1109 8.74599 47.6303 11.0681 49.3218 13.7057C49.3218 18.9352 49.8617 21.1248 46.5096 24.5608Z" fill="url(#paint6_linear_858_93)"/>
<path d="M46.5096 24.5608C40.588 30.6305 27.473 32.7101 17.2166 29.2058C7.96934 26.0463 5.90896 20.4306 6.49235 13.7065C6.89489 13.0821 8.78484 12.4677 9.36753 11.8704C15.2891 5.80069 28.404 3.72105 38.6605 7.2254C43.1109 8.74599 47.6303 11.0681 49.3218 13.7057C49.3218 18.9352 49.8617 21.1248 46.5096 24.5608Z" fill="url(#paint7_linear_858_93)"/>
<ellipse cx="19.6251" cy="15.354" rx="19.6251" ry="15.354" transform="matrix(0.946289 0.323321 -0.698318 0.715787 20.0928 -2.60562)" fill="#D9D9D9"/>
<ellipse cx="19.6251" cy="15.354" rx="19.6251" ry="15.354" transform="matrix(0.946289 0.323321 -0.698318 0.715787 20.0928 -2.60562)" fill="url(#paint8_linear_858_93)"/>
<ellipse cx="16.212" cy="12.6837" rx="16.212" ry="12.6837" transform="matrix(0.946289 0.323321 -0.698318 0.715787 21.4551 0.408783)" fill="#050D1A"/>
<defs>
<linearGradient id="paint0_linear_858_93" x1="9.10695" y1="74.2228" x2="8.97058" y2="47.8538" gradientUnits="userSpaceOnUse">
<stop stop-color="#08F7DB"/>
<stop offset="1" stop-color="#0F81F0"/>
</linearGradient>
<linearGradient id="paint1_linear_858_93" x1="-61.3642" y1="120.491" x2="-22.2123" y2="5.90184" gradientUnits="userSpaceOnUse">
<stop stop-color="#0F81F0"/>
<stop offset="1" stop-color="#0F0032"/>
</linearGradient>
<linearGradient id="paint2_linear_858_93" x1="12.4061" y1="2.05048" x2="23.2092" y2="22.2782" gradientUnits="userSpaceOnUse">
<stop offset="0.0174616" stop-color="#08F7DB"/>
<stop offset="1" stop-color="#0F81F0"/>
</linearGradient>
<linearGradient id="paint3_linear_858_93" x1="9.85402" y1="64.7593" x2="9.71765" y2="38.3902" gradientUnits="userSpaceOnUse">
<stop stop-color="#08F7DB"/>
<stop offset="1" stop-color="#0F81F0"/>
</linearGradient>
<linearGradient id="paint4_linear_858_93" x1="-60.6171" y1="111.027" x2="-21.4652" y2="-3.56169" gradientUnits="userSpaceOnUse">
<stop stop-color="#0F81F0"/>
<stop offset="1" stop-color="#0F0032"/>
</linearGradient>
<linearGradient id="paint5_linear_858_93" x1="12.4061" y1="2.05048" x2="23.2092" y2="22.2782" gradientUnits="userSpaceOnUse">
<stop offset="0.0174616" stop-color="#08F7DB"/>
<stop offset="1" stop-color="#0F81F0"/>
</linearGradient>
<linearGradient id="paint6_linear_858_93" x1="15.0845" y1="56.7902" x2="14.9481" y2="30.4211" gradientUnits="userSpaceOnUse">
<stop stop-color="#08F7DB"/>
<stop offset="1" stop-color="#0F81F0"/>
</linearGradient>
<linearGradient id="paint7_linear_858_93" x1="-55.3866" y1="103.058" x2="-16.2348" y2="-11.5308" gradientUnits="userSpaceOnUse">
<stop stop-color="#0F81F0"/>
<stop offset="1" stop-color="#0F0032"/>
</linearGradient>
<linearGradient id="paint8_linear_858_93" x1="12.4061" y1="2.05048" x2="23.2092" y2="22.2782" gradientUnits="userSpaceOnUse">
<stop offset="0.0174616" stop-color="#08F7DB"/>
<stop offset="1" stop-color="#0F81F0"/>
</linearGradient>
</defs>
</svg>
