<svg width="53" height="53" viewBox="0 0 53 53" fill="none" xmlns="http://www.w3.org/2000/svg">
<g filter="url(#filter0_f_1060_137)">
<circle cx="26.74" cy="26.74" r="25.74" fill="white" fill-opacity="0.1"/>
<circle cx="26.74" cy="26.74" r="24.765" stroke="url(#paint0_linear_1060_137)" stroke-width="1.95"/>
</g>
<path fill-rule="evenodd" clip-rule="evenodd" d="M13.3865 18.0319C13.169 18.0423 12.9941 18.2108 13.0014 18.4305C13.0558 20.0493 13.0431 22.2229 13.0252 25.2753C13.0185 26.4217 13.0111 27.6921 13.0062 29.1037C12.9999 30.9313 13.8446 33.0019 15.1148 34.316C18.2882 37.5994 24.1351 43.4402 26.3005 43.4402C28.4702 43.4402 34.4401 37.5759 37.6671 34.2963C38.949 32.9935 39.801 30.9299 39.7967 29.1022C39.7914 26.8361 39.781 25.1413 39.7728 23.7991C39.757 21.2282 39.7492 19.951 39.8003 18.4305C39.8077 18.2108 39.6322 18.0423 39.4146 18.0331C34.2968 17.818 29.2528 13.4974 27.2752 11.6004C26.7867 11.1318 26.0032 11.1177 25.5034 11.5738C23.4436 13.4533 18.1847 17.8012 13.3865 18.0319ZM15.9103 19.8379C15.7349 19.8464 15.5939 19.9822 15.5999 20.1592C15.6437 21.4639 15.6335 23.2157 15.6191 25.6759C15.6146 26.4373 15.6098 27.2665 15.606 28.1714C15.5984 29.999 16.4386 32.076 17.7136 33.3855C20.337 36.0797 24.6628 40.316 26.3184 40.316C27.9778 40.316 32.3951 36.0601 35.0643 33.3668C36.3509 32.0687 37.1996 29.9995 37.1942 28.1719C37.1897 26.6356 37.1824 25.4484 37.1765 24.4861C37.1638 22.414 37.1575 21.3847 37.1987 20.1592C37.2046 19.9822 37.0632 19.8463 36.8878 19.8389C32.7631 19.6656 28.6978 16.1834 27.104 14.6544C26.7103 14.2768 26.0788 14.2654 25.6759 14.633C24.0158 16.1478 19.7774 19.652 15.9103 19.8379Z" fill="white"/>
<path d="M23.4979 32.4315L20.0371 28.8938C19.679 28.5278 19.6714 27.945 20.0198 27.5697C20.3899 27.1712 21.017 27.1596 21.4016 27.5442L23.6397 29.7822C23.7821 29.9246 24.0129 29.9246 24.1552 29.7822L31.4441 22.4934C31.8049 22.1325 32.39 22.1325 32.7508 22.4934C33.109 22.8516 33.1121 23.4314 32.7576 23.7933L24.2973 32.4318C24.0779 32.6558 23.7172 32.6557 23.4979 32.4315Z" fill="white"/>
<defs>
<filter id="filter0_f_1060_137" x="0.761724" y="0.761724" width="51.9565" height="51.9566" filterUnits="userSpaceOnUse" color-interpolation-filters="sRGB">
<feFlood flood-opacity="0" result="BackgroundImageFix"/>
<feBlend mode="normal" in="SourceGraphic" in2="BackgroundImageFix" result="shape"/>
<feGaussianBlur stdDeviation="0.119138" result="effect1_foregroundBlur_1060_137"/>
</filter>
<linearGradient id="paint0_linear_1060_137" x1="12.4786" y1="6.7973" x2="43.0884" y2="47.8422" gradientUnits="userSpaceOnUse">
<stop stop-color="white"/>
<stop offset="1" stop-color="white"/>
</linearGradient>
</defs>
</svg>
