<svg width="53" height="53" viewBox="0 0 53 53" fill="none" xmlns="http://www.w3.org/2000/svg">
<g filter="url(#filter0_f_1060_152)">
<circle cx="26.74" cy="26.74" r="25.74" fill="#08F7DB" fill-opacity="0.1"/>
<circle cx="26.74" cy="26.74" r="24.765" stroke="url(#paint0_linear_1060_152)" stroke-width="1.95"/>
</g>
<path d="M45.0164 30.3067C45.3972 25.2338 41.5937 21.3896 36.5209 21.0088C35.9475 20.9657 35.2592 21.0831 34.6151 21.2229C34.0183 21.3525 33.6411 21.9503 33.7668 22.5479V22.5479C33.8943 23.154 34.4872 23.5183 35.091 23.3804C35.532 23.2797 35.9844 23.2023 36.3541 23.23C40.2002 23.5187 43.0839 26.2939 42.7951 30.14C42.5064 33.9861 39.0209 36.5811 34.9984 36.5811L18.9608 36.5811L18.9608 38.8024L34.8316 38.8024C39.9442 38.8024 44.6356 35.3796 45.0164 30.3067Z" fill="white"/>
<path fill-rule="evenodd" clip-rule="evenodd" d="M38.9726 22.9054L36.6949 23.1852C35.9894 18.281 31.8024 14.7342 26.7029 14.7342C22.5736 14.7342 19.0215 17.2054 17.4448 20.7495L15.2238 20.106C17.0906 15.6055 21.5271 12.4401 26.7029 12.4401C32.9748 12.4401 38.1288 16.866 38.9726 22.9054Z" fill="white"/>
<path fill-rule="evenodd" clip-rule="evenodd" d="M12.5202 37.086C16.591 39.9425 22.0989 39.226 25.3194 35.5894C25.7239 35.1326 25.5989 34.4382 25.0994 34.0877V34.0877C24.6 33.7372 23.9163 33.8653 23.4967 34.3082C20.991 36.9523 16.8603 37.4322 13.7893 35.2774C10.4121 32.9076 9.5953 28.2488 11.9651 24.8716C14.12 21.8005 18.1676 20.8468 21.4233 22.4809C21.9686 22.7546 22.655 22.6425 23.0054 22.143V22.143C23.3559 21.6436 23.2372 20.948 22.7014 20.6561C18.436 18.3319 13.0129 19.5316 10.1564 23.6025C7.08575 27.9786 8.14406 34.0154 12.5202 37.086Z" fill="white"/>
<path d="M27.8478 28.1757C27.5313 28.1757 27.345 28.5269 27.5252 28.7839L29.2042 31.1796C29.3602 31.4022 29.6934 31.4022 29.8494 31.1796L31.5284 28.7839C31.7086 28.5269 31.5223 28.1757 31.2058 28.1757H30.753C30.5363 28.1757 30.3606 28.0022 30.3606 27.7881V23.4276C30.3606 23.2135 30.1849 23.0399 29.9682 23.0399H28.9627C28.746 23.0399 28.5703 23.2135 28.5703 23.4276V27.7881C28.5703 28.0022 28.3947 28.1757 28.178 28.1757H27.8478Z" fill="white"/>
<path d="M26.35 26.5042C26.6665 26.5042 26.8528 26.153 26.6726 25.896L24.9936 23.5003C24.8375 23.2777 24.5044 23.2777 24.3483 23.5003L22.6693 25.896C22.4892 26.153 22.6754 26.5042 22.9919 26.5042H23.4447C23.6614 26.5042 23.8371 26.6777 23.8371 26.8918V31.2523C23.8371 31.4664 24.0128 31.6399 24.2295 31.6399H25.235C25.4517 31.6399 25.6274 31.4664 25.6274 31.2523V26.8918C25.6274 26.6777 25.8031 26.5042 26.0198 26.5042H26.35Z" fill="white"/>
<defs>
<filter id="filter0_f_1060_152" x="0.761724" y="0.761724" width="51.9565" height="51.9566" filterUnits="userSpaceOnUse" color-interpolation-filters="sRGB">
<feFlood flood-opacity="0" result="BackgroundImageFix"/>
<feBlend mode="normal" in="SourceGraphic" in2="BackgroundImageFix" result="shape"/>
<feGaussianBlur stdDeviation="0.119138" result="effect1_foregroundBlur_1060_152"/>
</filter>
<linearGradient id="paint0_linear_1060_152" x1="12.4786" y1="6.7973" x2="43.0884" y2="47.8422" gradientUnits="userSpaceOnUse">
<stop stop-color="#08F7DB"/>
<stop offset="1" stop-color="#08F7DB"/>
</linearGradient>
</defs>
</svg>
