<svg width="166" height="166" viewBox="0 0 166 166" fill="none" xmlns="http://www.w3.org/2000/svg">
<circle cx="82.7893" cy="83.0723" r="72.5065" fill="#08F7DB" fill-opacity="0.1"/>
<circle cx="82.7893" cy="83.0723" r="72.5065" stroke="white" stroke-width="5.70917"/>
<circle cx="82.7893" cy="83.0723" r="72.5065" stroke="#08F7DB" stroke-width="5.70917"/>
<path d="M96.0814 74.2222C96.0814 71.9436 94.2343 70.0965 91.9557 70.0965H71.3273C69.0488 70.0965 67.2016 71.9436 67.2016 74.2222V94.8506C67.2016 97.1291 69.0488 98.9763 71.3273 98.9763H91.9557C94.2343 98.9763 96.0814 97.1291 96.0814 94.8506V74.2222Z" fill="white"/>
<path d="M99.6177 43.5742C99.6177 41.2957 97.7706 39.4485 95.492 39.4485H95.1973C92.9188 39.4485 91.0717 41.2957 91.0717 43.5742V55.9513C91.0717 58.2298 92.9188 60.077 95.1973 60.077H95.492C97.7706 60.077 99.6177 58.2298 99.6177 55.9513V43.5742Z" fill="white"/>
<path d="M122.751 102.365C125.03 102.365 126.877 100.518 126.877 98.2395L126.877 97.9449C126.877 95.6663 125.03 93.8192 122.751 93.8192H110.374C108.095 93.8192 106.248 95.6663 106.248 97.9449V98.2395C106.248 100.518 108.095 102.365 110.374 102.365H122.751Z" fill="white"/>
<path d="M99.6177 113.121C99.6177 110.843 97.7706 108.996 95.492 108.996H95.1973C92.9188 108.996 91.0717 110.843 91.0717 113.121V125.499C91.0717 127.777 92.9188 129.624 95.1973 129.624H95.492C97.7706 129.624 99.6177 127.777 99.6177 125.499V113.121Z" fill="white"/>
<path d="M53.2038 102.365C55.4823 102.365 57.3295 100.518 57.3295 98.2395V97.9449C57.3295 95.6663 55.4823 93.8192 53.2038 93.8192H40.8267C38.5482 93.8192 36.701 95.6663 36.701 97.9449V98.2395C36.701 100.518 38.5482 102.365 40.8267 102.365H53.2038Z" fill="white"/>
<path d="M86.0619 43.5742C86.0619 41.2957 84.2148 39.4485 81.9362 39.4485H81.6415C79.363 39.4485 77.5158 41.2957 77.5158 43.5742V55.9513C77.5158 58.2298 79.363 60.077 81.6415 60.077H81.9362C84.2148 60.077 86.0619 58.2298 86.0619 55.9513V43.5742Z" fill="white"/>
<path d="M122.751 88.8094C125.03 88.8094 126.877 86.9623 126.877 84.6837L126.877 84.389C126.877 82.1105 125.03 80.2634 122.751 80.2634H110.374C108.095 80.2634 106.248 82.1105 106.248 84.389V84.6837C106.248 86.9623 108.095 88.8094 110.374 88.8094H122.751Z" fill="white"/>
<path d="M86.0619 113.121C86.0619 110.843 84.2148 108.996 81.9362 108.996H81.6415C79.363 108.996 77.5158 110.843 77.5158 113.121V125.499C77.5158 127.777 79.363 129.624 81.6415 129.624H81.9362C84.2148 129.624 86.0619 127.777 86.0619 125.499V113.121Z" fill="white"/>
<path d="M53.2038 88.8094C55.4823 88.8094 57.3295 86.9623 57.3295 84.6837V84.389C57.3295 82.1105 55.4823 80.2634 53.2038 80.2634H40.8267C38.5482 80.2634 36.701 82.1105 36.701 84.389V84.6837C36.701 86.9623 38.5482 88.8094 40.8267 88.8094H53.2038Z" fill="white"/>
<path d="M72.5061 43.5742C72.5061 41.2957 70.659 39.4485 68.3804 39.4485H68.0857C65.8072 39.4485 63.96 41.2957 63.96 43.5742V55.9513C63.96 58.2298 65.8072 60.077 68.0857 60.077H68.3804C70.659 60.077 72.5061 58.2298 72.5061 55.9513V43.5742Z" fill="white"/>
<path d="M122.751 75.2536C125.03 75.2536 126.877 73.4065 126.877 71.1279L126.877 70.8332C126.877 68.5547 125.03 66.7075 122.751 66.7075H110.374C108.095 66.7075 106.248 68.5547 106.248 70.8332V71.1279C106.248 73.4065 108.095 75.2536 110.374 75.2536H122.751Z" fill="white"/>
<path d="M72.5061 113.121C72.5061 110.843 70.659 108.996 68.3804 108.996H68.0857C65.8072 108.996 63.96 110.843 63.96 113.121V125.499C63.96 127.777 65.8072 129.624 68.0857 129.624H68.3804C70.659 129.624 72.5061 127.777 72.5061 125.499V113.121Z" fill="white"/>
<path d="M53.2038 75.2536C55.4823 75.2536 57.3295 73.4065 57.3295 71.1279V70.8332C57.3295 68.5547 55.4823 66.7075 53.2038 66.7075H40.8267C38.5482 66.7075 36.701 68.5547 36.701 70.8332V71.1279C36.701 73.4065 38.5482 75.2536 40.8267 75.2536H53.2038Z" fill="white"/>
<path fill-rule="evenodd" clip-rule="evenodd" d="M108.458 53.5938C110.737 53.5938 112.584 55.4409 112.584 57.7194V111.353C112.584 113.632 110.737 115.479 108.458 115.479H54.8246C52.546 115.479 50.6989 113.632 50.6989 111.353V57.7194C50.6989 55.4409 52.546 53.5938 54.8246 53.5938H108.458ZM101.537 60.5151C103.816 60.5151 105.663 62.3623 105.663 64.6408V104.432C105.663 106.711 103.816 108.558 101.537 108.558H61.746C59.4674 108.558 57.6203 106.711 57.6203 104.432V64.6408C57.6203 62.3623 59.4674 60.5151 61.746 60.5151H101.537Z" fill="white"/>
</svg>
