<svg width="53" height="53" viewBox="0 0 53 53" fill="none" xmlns="http://www.w3.org/2000/svg">
<g filter="url(#filter0_f_1060_167)">
<circle cx="26.74" cy="26.74" r="25.74" fill="#08F7DB" fill-opacity="0.1"/>
<circle cx="26.74" cy="26.74" r="24.765" stroke="url(#paint0_linear_1060_167)" stroke-width="1.95"/>
</g>
<path fill-rule="evenodd" clip-rule="evenodd" d="M26.3973 24.2523C33.6874 24.2523 39.5973 21.2078 39.5973 17.4523C39.5973 13.6967 33.6874 10.6523 26.3973 10.6523C19.1071 10.6523 13.1973 13.6967 13.1973 17.4523C13.1973 21.2078 19.1071 24.2523 26.3973 24.2523ZM26.3973 22.2657C32.6876 22.2657 37.787 20.1107 37.787 17.4523C37.787 14.7938 32.6876 12.6388 26.3973 12.6388C20.1069 12.6388 15.0076 14.7938 15.0076 17.4523C15.0076 20.1107 20.1069 22.2657 26.3973 22.2657Z" fill="white"/>
<path d="M39.5973 23.1373C39.5973 26.8459 33.6875 29.8523 26.3975 29.8523C19.1075 29.8523 13.1978 26.8459 13.1978 23.1373C13.1978 21.2396 13.197 19.3312 13.1974 17.29H15.008C15.008 19.4532 15.008 21.8772 15.008 23.1373C15.008 25.7625 20.1073 27.8906 26.3975 27.8906C32.6878 27.8906 37.787 25.7625 37.787 23.1373C37.787 22.0614 37.787 18.6858 37.787 17.2523L39.5973 17.2523C39.5973 18.9498 39.5973 21.5536 39.5973 23.1373Z" fill="white"/>
<path fill-rule="evenodd" clip-rule="evenodd" d="M13.1978 28.9373C13.1978 32.4779 18.5843 35.3784 25.4158 35.6339C25.9571 35.6542 26.3975 35.2131 26.3975 34.6714V34.6714C26.3975 34.1297 25.9574 33.6924 25.416 33.6732C19.5853 33.4655 15.008 31.4244 15.008 28.9373L15.008 23.09H13.1974C13.1971 24.3212 13.1973 25.5041 13.1975 26.6656C13.1977 27.4296 13.1978 28.1843 13.1978 28.9373Z" fill="white"/>
<path fill-rule="evenodd" clip-rule="evenodd" d="M13.1978 34.7372C13.1978 38.2778 18.5843 41.1784 25.4158 41.4339C25.9571 41.4541 26.3975 41.013 26.3975 40.4713V40.4713C26.3975 39.9296 25.9574 39.4924 25.416 39.4731C19.5853 39.2654 15.008 37.2244 15.008 34.7372L15.008 28.8899H13.1974C13.1971 30.1211 13.1973 31.3041 13.1975 32.4655C13.1977 33.2295 13.1978 33.9842 13.1978 34.7372Z" fill="white"/>
<path fill-rule="evenodd" clip-rule="evenodd" d="M33.899 40.0399C36.6052 40.0399 38.799 37.8461 38.799 35.1399C38.799 32.4337 36.6052 30.2399 33.899 30.2399C31.1928 30.2399 28.999 32.4337 28.999 35.1399C28.999 37.8461 31.1928 40.0399 33.899 40.0399ZM33.8998 38.0399C35.5014 38.0399 36.7998 36.7416 36.7998 35.1399C36.7998 33.5383 35.5014 32.2399 33.8998 32.2399C32.2982 32.2399 30.9998 33.5383 30.9998 35.1399C30.9998 36.7416 32.2982 38.0399 33.8998 38.0399Z" fill="white"/>
<path d="M30.9983 40.8354C30.9983 40.6823 31.1879 40.5885 31.3152 40.6702C31.7501 40.9492 32.6254 41.3781 33.8983 41.3781C35.1712 41.3781 36.0465 40.9492 36.4813 40.6702C36.6086 40.5885 36.7983 40.6823 36.7983 40.8354V46.7107C36.7983 47.178 36.2456 47.4151 35.9165 47.0891L34.2607 45.4488C34.059 45.249 33.7375 45.249 33.5359 45.4488L31.8801 47.0891C31.551 47.4151 30.9983 47.178 30.9983 46.7107L30.9983 40.8354Z" fill="white"/>
<defs>
<filter id="filter0_f_1060_167" x="0.761724" y="0.761724" width="51.9565" height="51.9566" filterUnits="userSpaceOnUse" color-interpolation-filters="sRGB">
<feFlood flood-opacity="0" result="BackgroundImageFix"/>
<feBlend mode="normal" in="SourceGraphic" in2="BackgroundImageFix" result="shape"/>
<feGaussianBlur stdDeviation="0.119138" result="effect1_foregroundBlur_1060_167"/>
</filter>
<linearGradient id="paint0_linear_1060_167" x1="12.4786" y1="6.7973" x2="43.0884" y2="47.8422" gradientUnits="userSpaceOnUse">
<stop stop-color="#08F7DB"/>
<stop offset="1" stop-color="#08F7DB"/>
</linearGradient>
</defs>
</svg>
