<svg width="165" height="165" viewBox="0 0 165 165" fill="none" xmlns="http://www.w3.org/2000/svg">
<circle cx="82.3611" cy="82.3611" r="72.5065" fill="#08F7DB" fill-opacity="0.1"/>
<circle cx="82.3611" cy="82.3611" r="72.5065" stroke="white" stroke-width="5.70917"/>
<circle cx="82.3611" cy="82.3611" r="72.5065" stroke="#08F7DB" stroke-width="5.70917"/>
<path fill-rule="evenodd" clip-rule="evenodd" d="M82.1979 129.93C82.1979 131.741 80.7248 133.221 78.9171 133.102C53.2729 131.414 32.9958 110.079 32.9958 84.0077C32.9958 56.8342 55.024 34.8057 82.1979 34.8057C108.269 34.8057 129.604 55.083 131.292 80.7269C131.411 82.5346 129.931 84.0077 128.12 84.0077V84.0077C126.308 84.0077 124.853 82.534 124.715 80.7276C123.04 58.7099 104.645 41.3659 82.1979 41.3659C58.6475 41.3659 39.5561 60.4574 39.5561 84.0077C39.5561 106.454 56.9001 124.85 78.9178 126.525C80.7242 126.663 82.1979 128.118 82.1979 129.93V129.93Z" fill="white"/>
<path fill-rule="evenodd" clip-rule="evenodd" d="M82.1978 129.93C82.1978 131.741 80.7051 133.248 78.9564 132.775C67.0833 129.563 57.9248 108.953 57.9248 84.0077C57.9248 56.8342 68.7922 34.8057 82.1978 34.8057C95.0592 34.8057 105.584 55.0818 106.418 80.7247C106.476 82.5353 105.002 84.0077 103.191 84.0077V84.0077C101.379 84.0077 99.9161 82.5351 99.8588 80.7245C99.1625 58.7082 91.5214 41.3659 82.1978 41.3659C72.4153 41.3659 64.4851 60.4573 64.4851 84.0077C64.4851 104.943 70.7519 122.354 79.0158 125.963C80.6759 126.688 82.1978 128.118 82.1978 129.93V129.93Z" fill="white"/>
<rect x="37.5876" y="63.6707" width="89.2197" height="7.2163" fill="white"/>
<path d="M37.5876 97.7844L76.9493 97.7844C78.942 97.7844 80.5574 99.3998 80.5574 101.393V101.393C80.5574 103.385 78.942 105.001 76.9493 105.001H37.5876V97.7844Z" fill="white"/>
<path fill-rule="evenodd" clip-rule="evenodd" d="M127.278 90.1328C133.048 97.5011 131.752 108.152 124.384 113.922L121.196 109.851C126.317 105.842 127.217 98.4405 123.208 93.3202C119.198 88.1998 111.797 87.2994 106.676 91.309C104.338 93.1401 102.88 95.6786 102.367 98.3841L96.9972 101.077C96.849 95.8828 99.0836 90.6885 103.489 87.2387C110.857 81.4688 121.508 82.7645 127.278 90.1328Z" fill="white"/>
<path fill-rule="evenodd" clip-rule="evenodd" d="M125.4 108.349C127.027 117.565 120.874 126.355 111.658 127.982L110.76 122.891C117.164 121.76 121.439 115.652 120.309 109.248C119.178 102.843 113.07 98.5677 106.666 99.6982C103.741 100.215 101.26 101.769 99.5355 103.916L93.5298 103.767C95.8419 99.113 100.257 95.5798 105.767 94.6072C114.983 92.9803 123.773 99.1327 125.4 108.349Z" fill="white"/>
<path fill-rule="evenodd" clip-rule="evenodd" d="M108.834 131.316C116.337 125.721 117.883 115.104 112.288 107.601C106.693 100.099 96.076 98.5529 88.5736 104.148C81.0712 109.743 79.5252 120.36 85.1201 127.862C90.715 135.364 101.332 136.911 108.834 131.316ZM105.744 127.171C110.957 123.283 112.031 115.905 108.144 110.692C104.256 105.479 96.8777 104.404 91.6642 108.292C86.4506 112.18 85.3764 119.558 89.2643 124.771C93.1522 129.985 100.53 131.059 105.744 127.171Z" fill="white"/>
</svg>
