<svg width="53" height="53" viewBox="0 0 53 53" fill="none" xmlns="http://www.w3.org/2000/svg">
<g filter="url(#filter0_f_1060_209)">
<circle cx="26.74" cy="26.74" r="25.74" fill="#0F81F0" fill-opacity="0.1"/>
<circle cx="26.74" cy="26.74" r="24.765" stroke="url(#paint0_linear_1060_209)" stroke-width="1.95"/>
</g>
<path d="M32.6392 22.3541C32.6392 21.8326 32.2164 21.4099 31.6949 21.4099H21.8984C21.3769 21.4099 20.9542 21.8326 20.9542 22.3541V27.2524C20.9542 30.4791 23.5699 33.0949 26.7967 33.0949V33.0949C30.0234 33.0949 32.6392 30.4791 32.6392 27.2524V22.3541Z" fill="white"/>
<path d="M30.1787 21.8881C30.1787 22.1901 29.934 22.4348 29.632 22.4348H28.6754C28.3735 22.4348 28.1287 22.1901 28.1287 21.8881V16.6948C28.1287 16.1287 28.5876 15.6698 29.1537 15.6698V15.6698C29.7198 15.6698 30.1787 16.1287 30.1787 16.6948V21.8881Z" fill="white"/>
<path d="M28.5386 32.2832C28.5386 31.8257 28.1677 31.4549 27.7103 31.4549H26.0869C25.6294 31.4549 25.2586 31.8257 25.2586 32.2832V40.0649C25.2586 40.9706 25.9928 41.7049 26.8986 41.7049V41.7049C27.8043 41.7049 28.5386 40.9706 28.5386 40.0649V32.2832Z" fill="white"/>
<path d="M25.4639 21.8881C25.4639 22.1901 25.2191 22.4348 24.9172 22.4348H23.9605C23.6586 22.4348 23.4139 22.1901 23.4139 21.8881V16.6948C23.4139 16.1287 23.8728 15.6698 24.4389 15.6698V15.6698C25.005 15.6698 25.4639 16.1287 25.4639 16.6948V21.8881Z" fill="white"/>
<path fill-rule="evenodd" clip-rule="evenodd" d="M26.7955 42.5248C18.1343 42.5248 11.113 35.5035 11.113 26.8423C11.113 18.1811 18.1343 11.1598 26.7955 11.1598C35.4567 11.1598 42.478 18.1811 42.478 26.8423C42.478 35.5035 35.4567 42.5248 26.7955 42.5248ZM26.796 40.4056C19.3052 40.4056 13.2327 34.3331 13.2327 26.8423C13.2327 19.3515 19.3052 13.2791 26.796 13.2791C34.2867 13.2791 40.3592 19.3515 40.3592 26.8423C40.3592 34.3331 34.2867 40.4056 26.796 40.4056Z" fill="white"/>
<defs>
<filter id="filter0_f_1060_209" x="0.761724" y="0.761724" width="51.9565" height="51.9566" filterUnits="userSpaceOnUse" color-interpolation-filters="sRGB">
<feFlood flood-opacity="0" result="BackgroundImageFix"/>
<feBlend mode="normal" in="SourceGraphic" in2="BackgroundImageFix" result="shape"/>
<feGaussianBlur stdDeviation="0.119138" result="effect1_foregroundBlur_1060_209"/>
</filter>
<linearGradient id="paint0_linear_1060_209" x1="12.4786" y1="6.7973" x2="43.0884" y2="47.8422" gradientUnits="userSpaceOnUse">
<stop stop-color="#0F81F0"/>
<stop offset="1" stop-color="#0F81F0"/>
</linearGradient>
</defs>
</svg>
