<svg width="53" height="53" viewBox="0 0 53 53" fill="none" xmlns="http://www.w3.org/2000/svg">
<g filter="url(#filter0_f_1060_147)">
<circle cx="26.74" cy="26.74" r="25.74" fill="#08F7DB" fill-opacity="0.1"/>
<circle cx="26.74" cy="26.74" r="24.765" stroke="url(#paint0_linear_1060_147)" stroke-width="1.95"/>
</g>
<path d="M33.0286 16.388C33.0286 15.4845 34.1282 15.0385 34.759 15.6863C35.3803 16.3243 34.9276 17.3946 34.0364 17.3946C33.4798 17.3946 33.0286 16.9439 33.0286 16.388Z" fill="white"/>
<path fill-rule="evenodd" clip-rule="evenodd" d="M38.5356 41.1748H15.7392C15.0319 41.1748 14.4585 40.6022 14.4585 39.8958V37.6237H16.2515V38.1051C16.2515 38.8115 16.8249 39.3842 17.5322 39.3842H36.7426C37.4499 39.3842 38.0233 38.8115 38.0233 38.1051V20.4643C38.0233 19.7579 37.4499 19.1852 36.7426 19.1852H32.5163C31.809 19.1852 31.2356 18.6126 31.2356 17.9062V13.4935C31.2356 12.7871 30.6622 12.2144 29.9549 12.2144H17.5322C16.8249 12.2144 16.2515 12.7871 16.2515 13.4935V30.1051H14.4585V11.7028C14.4585 10.9964 15.0319 10.4238 15.7392 10.4238H32.4876C32.8335 10.4238 33.1646 10.5635 33.4057 10.8111L39.4537 17.0222C39.6862 17.261 39.8163 17.5809 39.8163 17.9139V39.8958C39.8163 40.6022 39.2429 41.1748 38.5356 41.1748ZM33.0286 16.388C33.0286 15.4845 34.1282 15.0385 34.759 15.6863C35.3803 16.3243 34.9276 17.3946 34.0364 17.3946C33.4798 17.3946 33.0286 16.9439 33.0286 16.388Z" fill="white"/>
<path d="M16.2515 30.1051H14.4585L14.4585 37.6237H16.2515V30.1051Z" fill="white"/>
<path fill-rule="evenodd" clip-rule="evenodd" d="M12.4255 25.74C12.0404 25.74 11.7283 26.0521 11.7283 26.4372V34.1094C11.7283 34.4945 12.0404 34.8067 12.4255 34.8067H34.4717C34.8567 34.8067 35.1689 34.4945 35.1689 34.1094V26.4372C35.1689 26.0521 34.8567 25.74 34.4717 25.74H12.4255ZM13.8003 26.9507C13.4152 26.9507 13.103 27.2628 13.103 27.6479V32.9308C13.103 33.3159 13.4152 33.6281 13.8003 33.6281H33.0271C33.4122 33.6281 33.7244 33.3159 33.7244 32.9308V27.6479C33.7244 27.2628 33.4122 26.9507 33.0271 26.9507H13.8003Z" fill="white"/>
<path d="M13.103 27.6479C13.103 27.2628 13.4152 26.9507 13.8003 26.9507H33.0271C33.4122 26.9507 33.7244 27.2628 33.7244 27.6479V32.9308C33.7244 33.3159 33.4122 33.6281 33.0271 33.6281H13.8003C13.4152 33.6281 13.103 33.3159 13.103 32.9308V27.6479Z" fill="white"/>
<defs>
<filter id="filter0_f_1060_147" x="0.761724" y="0.761724" width="51.9565" height="51.9566" filterUnits="userSpaceOnUse" color-interpolation-filters="sRGB">
<feFlood flood-opacity="0" result="BackgroundImageFix"/>
<feBlend mode="normal" in="SourceGraphic" in2="BackgroundImageFix" result="shape"/>
<feGaussianBlur stdDeviation="0.119138" result="effect1_foregroundBlur_1060_147"/>
</filter>
<linearGradient id="paint0_linear_1060_147" x1="12.4786" y1="6.7973" x2="43.0884" y2="47.8422" gradientUnits="userSpaceOnUse">
<stop stop-color="#08F7DB"/>
<stop offset="1" stop-color="#08F7DB"/>
</linearGradient>
</defs>
</svg>
