<svg width="53" height="53" viewBox="0 0 53 53" fill="none" xmlns="http://www.w3.org/2000/svg">
<g filter="url(#filter0_f_1060_189)">
<circle cx="26.74" cy="26.74" r="25.74" fill="#0F81F0" fill-opacity="0.1"/>
<circle cx="26.74" cy="26.74" r="24.765" stroke="url(#paint0_linear_1060_189)" stroke-width="1.95"/>
</g>
<path d="M23.4972 33.6689C23.2687 33.8973 22.8983 33.8973 22.6698 33.6689L20.4954 31.4944C20.267 31.266 20.267 30.8956 20.4954 30.6671L31.2132 19.9493C31.4417 19.7209 31.8121 19.7209 32.0405 19.9493L34.215 22.1237C34.4434 22.3522 34.4434 22.7226 34.215 22.9511L23.4972 33.6689Z" fill="white"/>
<path d="M35.2176 21.9498C35.9132 21.2542 35.9132 20.1264 35.2176 19.4308L34.7348 18.948C34.0392 18.2525 32.9114 18.2525 32.2159 18.948V18.948C32.1463 19.0176 32.1463 19.1304 32.2159 19.1999L34.9657 21.9498C35.0352 22.0193 35.148 22.0193 35.2176 21.9498V21.9498Z" fill="white"/>
<path d="M22.3458 34.82C22.4981 34.6677 22.4981 34.4208 22.3458 34.2684L19.8956 31.8183C19.7433 31.666 19.4964 31.666 19.3441 31.8183L19.2822 31.8801C19.0159 32.1464 18.8424 32.4913 18.7872 32.8638L18.4655 35.0341C18.4079 35.4224 18.7416 35.7561 19.1299 35.6986L21.3003 35.3769C21.6728 35.3217 22.0177 35.1481 22.2839 34.8819L22.3458 34.82Z" fill="white"/>
<path fill-rule="evenodd" clip-rule="evenodd" d="M12.9463 16.1678C12.9463 14.8518 14.0131 13.785 15.3291 13.785H37.6684C38.9844 13.785 40.0513 14.8518 40.0513 16.1678V21.9691C40.0513 22.5076 39.6148 22.9441 39.0763 22.9441H38.6434C38.105 22.9441 37.6684 22.5076 37.6684 21.9691V18.5507C37.6684 17.2347 36.6016 16.1678 35.2856 16.1678H17.712C16.396 16.1678 15.3291 17.2347 15.3291 18.5507V36.1243C15.3291 37.4403 16.396 38.5071 17.712 38.5071H35.2856C36.6016 38.5071 37.6684 37.4403 37.6684 36.1243V28.3125C37.6684 27.774 38.105 27.3375 38.6434 27.3375H39.0763C39.6148 27.3375 40.0513 27.774 40.0513 28.3125V38.5071C40.0513 39.8231 38.9844 40.89 37.6684 40.89H15.3291C14.0131 40.89 12.9463 39.8231 12.9463 38.5071V16.1678Z" fill="white"/>
<defs>
<filter id="filter0_f_1060_189" x="0.761724" y="0.761724" width="51.9565" height="51.9566" filterUnits="userSpaceOnUse" color-interpolation-filters="sRGB">
<feFlood flood-opacity="0" result="BackgroundImageFix"/>
<feBlend mode="normal" in="SourceGraphic" in2="BackgroundImageFix" result="shape"/>
<feGaussianBlur stdDeviation="0.119138" result="effect1_foregroundBlur_1060_189"/>
</filter>
<linearGradient id="paint0_linear_1060_189" x1="12.4786" y1="6.7973" x2="43.0884" y2="47.8422" gradientUnits="userSpaceOnUse">
<stop stop-color="#0F81F0"/>
<stop offset="1" stop-color="#0F81F0"/>
</linearGradient>
</defs>
</svg>
