<svg width="28" height="27" viewBox="0 0 28 27" fill="none" xmlns="http://www.w3.org/2000/svg">
<g clip-path="url(#clip0_1098_32)">
<path fill-rule="evenodd" clip-rule="evenodd" d="M25.3788 2.29161C24.7522 2.44461 24.1515 2.66623 23.5496 2.89123C22.9331 3.12186 22.311 3.33786 21.6933 3.56286C19.9473 4.19961 18.2025 4.83861 16.4677 5.50798C15.5711 5.85336 14.6666 6.17511 13.7711 6.52161C12.4672 7.02561 11.1656 7.53636 9.86846 8.05836C8.42171 8.64111 6.97496 9.22836 5.53946 9.83586C4.17146 10.4141 2.81696 11.025 1.45346 11.6134C1.17446 11.7337 0.912335 11.871 0.696335 12.0881C0.65246 12.1702 0.608585 12.2524 0.56471 12.3334C0.552335 12.3671 0.53996 12.4009 0.52646 12.4346C0.444335 12.8756 0.655835 13.1647 1.00796 13.3875C1.19246 13.5045 1.38483 13.6024 1.59183 13.6721C2.79108 14.0749 3.99146 14.4731 5.18958 14.8781C5.89496 15.1166 6.61271 15.3191 7.30233 15.5992C8.13258 15.1369 8.91333 14.598 9.71321 14.0895C12.105 12.5696 14.4945 11.0475 16.8851 9.52536C18.3971 8.56236 19.9068 7.59711 21.4177 6.63411C21.4245 6.62961 21.4312 6.62511 21.4391 6.62061C21.7293 6.44961 21.9172 6.45298 22.0342 6.63073C22.1377 6.78936 22.041 7.02336 21.8238 7.20786C21.4245 7.54873 21.0363 7.90086 20.6448 8.25073C19.683 9.11136 18.72 9.97198 17.7603 10.8349C17.1596 11.3771 16.569 11.9295 15.9682 12.4684C15.0817 13.2637 14.1885 14.0512 13.2997 14.8444C12.7665 15.3225 12.2355 15.804 11.7056 16.2866C11.4468 16.5217 10.9001 16.9852 10.9001 16.9852C10.3983 17.4319 9.89546 17.8774 9.39371 18.3251C9.06296 18.621 8.73446 18.9191 8.40483 19.2161C8.57133 19.7325 8.73221 20.2511 8.89871 20.7675C9.08433 21.3446 9.24746 21.9307 9.41958 22.5124C9.51746 22.7329 9.58721 22.9635 9.70871 23.175C10.0102 23.6981 10.4017 23.7622 10.8495 23.3471C11.2837 22.9444 11.718 22.5416 12.1511 22.1355C12.8216 21.5066 13.4898 20.8777 14.157 20.2455C14.2211 20.1847 14.31 20.1375 14.3257 20.0362C14.4123 20.0497 14.4765 20.1015 14.5428 20.1532C16.3901 21.5707 18.2396 22.9849 20.0846 24.4046C20.9508 25.0717 22.023 24.7432 22.4482 23.6711C22.5686 23.0962 22.6766 22.5169 22.8105 21.9454C23.3325 19.7179 23.7971 17.4802 24.2606 15.2415C24.4755 14.2054 24.6892 13.1681 24.903 12.1309C24.9131 12.0577 24.9198 11.9824 24.9345 11.9092C25.479 9.05511 26.1146 6.21786 26.5286 3.33898C26.6613 2.41986 26.0268 2.13298 25.3777 2.29161H25.3788Z" fill="white"/>
</g>
<defs>
<clipPath id="clip0_1098_32">
<rect width="27" height="27" fill="white" transform="translate(0.0273438)"/>
</clipPath>
</defs>
</svg>
