<?xml version="1.0" encoding="utf-8"?>
<!-- Generator: Adobe Illustrator 28.1.0, SVG Export Plug-In . SVG Version: 6.00 Build 0)  -->
<svg version="1.1" xmlns="http://www.w3.org/2000/svg" xmlns:xlink="http://www.w3.org/1999/xlink" x="0px" y="0px"
	 viewBox="0 0 231.5 65.7" style="enable-background:new 0 0 231.5 65.7;" xml:space="preserve">
<style type="text/css">
	.st0{display:none;}
	.st1{fill:url(#SVGID_1_);}
	.st2{display:inline;fill:#0E131C;stroke:url(#SVGID_00000103249590138130197350000011459429453601126812_);stroke-width:0.3632;}
	.st3{display:inline;fill:#0E131C;stroke:url(#SVGID_00000078758888122020882380000016952401003316268728_);stroke-width:0.3632;}
	.st4{display:inline;fill:#FFFFFF;}
	.st5{fill:#0E131C;stroke:url(#SVGID_00000168823035248601777620000014627648050955531651_);stroke-width:0.3632;}
	.st6{fill-rule:evenodd;clip-rule:evenodd;fill:#FFFFFF;}
	.st7{fill:#FFFFFF;}
	.st8{display:inline;fill:#0E131C;stroke:url(#SVGID_00000012462995385668626040000017018890658684834724_);stroke-width:0.3632;}
	.st9{display:inline;fill-rule:evenodd;clip-rule:evenodd;fill:#FFFFFF;}
</style>
<g id="Layer_5" class="st0">
</g>
<g id="Layer_1">
	<g>
		
			<linearGradient id="SVGID_1_" gradientUnits="userSpaceOnUse" x1="115.0445" y1="-19.3383" x2="116.0958" y2="-67.8293" gradientTransform="matrix(1 0 0 -1 0 -25.7194)">
			<stop  offset="0" style="stop-color:#6AC8C1"/>
			<stop  offset="0.4158" style="stop-color:#417BBF"/>
			<stop  offset="0.995" style="stop-color:#6AC8C1"/>
		</linearGradient>
		<path class="st1" d="M116,0.4c1.8-0.1,3.6,0.6,4.9,2l32.2,32.2c1,1,2.4,1.6,3.9,1.6l73.2,1c0.3,0,0.6,0,0.6,0.1
			c0,0.1-0.3,0.1-0.6,0.1h-73.2c-1.8,0-3.5-0.7-4.7-2l-7.7-7.7C124.8,8.3,124.7,8.3,119.6,3.3l0,0c-1-1-2.3-1.6-3.7-1.6
			c-1.3,0.1-2.6,0.6-3.7,1.6l0,0L87.8,27.5c-0.1,0.1-0.2,0.1-0.3,0.2l-7.7,7.7c-1.3,1.3-3,2-4.7,2H1.8c-0.3,0-0.5,0-0.5-0.1
			c0,0,0.2-0.1,0.5-0.1l73.2-1c1.5,0,2.8-0.6,3.9-1.6L111,2.4C112.4,1,114.2,0.4,116,0.4z"/>
	</g>
</g>
<g id="Layer_2" class="st0">
	
		<linearGradient id="SVGID_00000097471055892130410100000012021043634018762168_" gradientUnits="userSpaceOnUse" x1="290.1734" y1="145.0838" x2="259.1993" y2="158.8928" gradientTransform="matrix(0.7071 0.7071 0.7071 -0.7071 -186.5306 -48.2612)">
		<stop  offset="0" style="stop-color:#58C5CB"/>
		<stop  offset="0.2694" style="stop-color:#2CC2DF;stop-opacity:0"/>
		<stop  offset="0.6636" style="stop-color:#16BEE6;stop-opacity:0.44"/>
		<stop  offset="1" style="stop-color:#16BEE6"/>
	</linearGradient>
	
		<path style="display:inline;fill:#0E131C;stroke:url(#SVGID_00000097471055892130410100000012021043634018762168_);stroke-width:0.3632;" d="
		M119.6,15.3l19.5,19.5c2.3,2.3,2.3,6.1,0,8.5l-19.5,19.5c-2.3,2.3-6.1,2.3-8.5,0L91.6,43.3c-2.3-2.3-2.3-6.1,0-8.5l19.5-19.5
		C113.5,12.9,117.3,12.9,119.6,15.3z"/>
	
		<linearGradient id="SVGID_00000110439270015835873190000004518464994080613567_" gradientUnits="userSpaceOnUse" x1="290.1734" y1="145.0838" x2="259.1993" y2="158.8928" gradientTransform="matrix(0.7071 0.7071 0.7071 -0.7071 -186.5306 -48.2612)">
		<stop  offset="0" style="stop-color:#58C5CB"/>
		<stop  offset="0.2694" style="stop-color:#2CC2DF;stop-opacity:0"/>
		<stop  offset="0.6636" style="stop-color:#16BEE6;stop-opacity:0.44"/>
		<stop  offset="1" style="stop-color:#16BEE6"/>
	</linearGradient>
	
		<path style="display:inline;fill:#0E131C;stroke:url(#SVGID_00000110439270015835873190000004518464994080613567_);stroke-width:0.3632;" d="
		M119.6,15.3l19.5,19.5c2.3,2.3,2.3,6.1,0,8.5l-19.5,19.5c-2.3,2.3-6.1,2.3-8.5,0L91.6,43.3c-2.3-2.3-2.3-6.1,0-8.5l19.5-19.5
		C113.5,12.9,117.3,12.9,119.6,15.3z"/>
	<path class="st4" d="M120.2,39.1c0-0.9-0.3-1.7-0.8-2.4l2-2c0.4,0.2,0.8,0.2,1.2,0.3c0.4,0,0.8-0.1,1.1-0.2c0.4-0.1,0.7-0.3,1-0.6
		c0.3-0.3,0.5-0.6,0.7-0.9c0.2-0.3,0.2-0.7,0.3-1.1c0-0.8-0.3-1.6-0.9-2.1c-0.6-0.6-1.3-0.9-2.1-0.9c-0.8,0-1.6,0.3-2.1,0.9
		c-0.6,0.6-0.9,1.3-0.9,2.1c0,0.5,0.1,0.9,0.4,1.3l-2,2c-0.7-0.4-1.5-0.6-2.3-0.6c-1,0-2,0.3-2.8,0.9c-0.8,0.6-1.4,1.4-1.6,2.4h-1
		c-0.2-0.6-0.6-1-1.1-1.4c-0.5-0.3-1.1-0.5-1.7-0.5c-0.8,0-1.5,0.3-2.1,0.8c-0.6,0.5-0.9,1.2-0.9,2c0,0.4,0.1,0.8,0.3,1.1
		c0.2,0.3,0.4,0.7,0.7,0.9c0.3,0.3,0.6,0.5,1,0.6c0.4,0.1,0.7,0.2,1.1,0.2c0.6,0,1.2-0.2,1.7-0.5c0.5-0.3,0.9-0.8,1.1-1.4h1
		c0.3,1,0.8,1.8,1.6,2.4c0.8,0.6,1.8,0.9,2.8,0.9c0.6,0,1.1-0.1,1.7-0.3c0.5-0.2,1-0.5,1.4-0.9c0.4-0.4,0.8-0.9,1-1.4
		C120.1,40.2,120.2,39.6,120.2,39.1z M122.7,31.2c0.3,0,0.5,0.1,0.8,0.2c0.2,0.2,0.3,0.4,0.4,0.7c0,0.3-0.2,0.5-0.4,0.7
		c-0.2,0.2-0.5,0.3-0.7,0.3c-0.3,0-0.5-0.1-0.7-0.3c-0.2-0.2-0.3-0.4-0.4-0.7c0-0.3,0.2-0.5,0.4-0.7
		C122.1,31.3,122.4,31.2,122.7,31.2z M107.5,40c-0.3,0-0.5-0.1-0.8-0.2c-0.2-0.2-0.3-0.4-0.4-0.7c0-0.3,0.2-0.5,0.4-0.7
		c0.2-0.2,0.5-0.3,0.8-0.2c0.3,0,0.5,0.1,0.8,0.2c0.2,0.2,0.3,0.4,0.4,0.7c0,0.3-0.2,0.5-0.4,0.7C108,39.9,107.8,40,107.5,40z
		 M115.7,41.4c-0.7,0-1.3-0.2-1.8-0.6c-0.5-0.4-0.8-1.1-0.8-1.7c0-0.7,0.3-1.3,0.8-1.7c0.5-0.4,1.1-0.7,1.8-0.6
		c0.7,0,1.3,0.2,1.8,0.6s0.8,1,0.8,1.7c0,0.7-0.3,1.3-0.8,1.7C117,41.2,116.4,41.4,115.7,41.4z"/>
	<path class="st4" d="M107.5,33.7c0.4,0,0.8-0.1,1.2-0.3l2.6,2.7c0.4-0.5,0.8-0.9,1.4-1.3l-2.6-2.6c0.2-0.4,0.4-0.9,0.4-1.3
		c0-0.8-0.4-1.5-0.9-2c-0.6-0.5-1.3-0.8-2.1-0.8c-0.8,0-1.5,0.3-2.1,0.8c-0.6,0.5-0.9,1.2-0.9,2c0,0.4,0.1,0.8,0.3,1.1
		c0.2,0.3,0.4,0.7,0.7,0.9c0.3,0.3,0.6,0.5,1,0.6C106.7,33.6,107.1,33.7,107.5,33.7z M107.5,29.9c0.3,0,0.5,0.1,0.8,0.2
		s0.3,0.4,0.4,0.7c0,0.3-0.2,0.5-0.4,0.7s-0.5,0.3-0.8,0.2c-0.3,0-0.5-0.1-0.8-0.2c-0.2-0.2-0.3-0.4-0.4-0.7c0-0.3,0.2-0.5,0.4-0.7
		C106.9,30,107.2,29.9,107.5,29.9z M124,44.5c-0.4,0-0.8,0.1-1.2,0.3l-2.6-2.7c-0.4,0.5-0.9,0.9-1.4,1.3l2.6,2.6
		c-0.2,0.4-0.3,0.9-0.3,1.3c0,0.8,0.3,1.6,0.9,2.1c0.6,0.6,1.3,0.9,2.1,0.9c0.8,0,1.6-0.3,2.1-0.9c0.6-0.6,0.9-1.3,0.9-2.1
		c0-0.8-0.4-1.5-0.9-2C125.5,44.7,124.8,44.5,124,44.5z M124,48.2c-0.3,0-0.5-0.1-0.8-0.2c-0.2-0.2-0.3-0.4-0.4-0.7
		c0-0.3,0.2-0.5,0.4-0.7c0.2-0.2,0.5-0.3,0.7-0.3s0.5,0.1,0.7,0.3c0.2,0.2,0.3,0.4,0.4,0.7c0,0.3-0.2,0.5-0.4,0.7
		C124.5,48.2,124.3,48.2,124,48.2z"/>
</g>
<g id="Layer_3">
	
		<linearGradient id="SVGID_00000160155132756606239510000006586407841388768935_" gradientUnits="userSpaceOnUse" x1="290.302" y1="144.9151" x2="259.3279" y2="158.7241" gradientTransform="matrix(0.7071 0.7071 0.7071 -0.7071 -186.5306 -48.2612)">
		<stop  offset="0" style="stop-color:#58C5CB"/>
		<stop  offset="0.2694" style="stop-color:#2CC2DF;stop-opacity:0"/>
		<stop  offset="0.6636" style="stop-color:#16BEE6;stop-opacity:0.44"/>
		<stop  offset="1" style="stop-color:#16BEE6"/>
	</linearGradient>
	<path style="fill:#0E131C;stroke:url(#SVGID_00000160155132756606239510000006586407841388768935_);stroke-width:0.3632;" d="
		M119.6,15.5L139.1,35c2.3,2.3,2.3,6.1,0,8.5L119.6,63c-2.3,2.3-6.1,2.3-8.5,0L91.6,43.5c-2.3-2.3-2.3-6.1,0-8.5l19.5-19.5
		C113.5,13.1,117.2,13.1,119.6,15.5z"/>
	<path class="st6" d="M115.3,34.4c0.8,0,1.6,0.3,2.2,0.8c0.6,0.5,1,1.3,1.2,2.1c0.1,0.8,0,1.6-0.4,2.3c-0.3,0.5-0.7,0.9-1.1,1.2
		c-0.4,0.2-0.7,0.6-0.7,1.1V46c0,0.6-0.5,1.1-1.1,1.1h-0.1c-0.6,0-1.1-0.5-1.1-1.1v-4.1c0-0.5-0.3-0.9-0.7-1.1
		c-0.5-0.3-0.9-0.7-1.1-1.2c-0.4-0.7-0.6-1.5-0.4-2.3c0.1-0.8,0.6-1.5,1.2-2.1C113.7,34.7,114.5,34.4,115.3,34.4 M115.3,36.7
		c0.3,0,0.6,0.1,0.8,0.3c0.2,0.2,0.3,0.5,0.3,0.8s-0.1,0.6-0.3,0.8c-0.2,0.2-0.5,0.3-0.8,0.3c-0.3,0-0.6-0.1-0.8-0.3
		s-0.3-0.5-0.3-0.8s0.1-0.6,0.3-0.8C114.7,36.8,115,36.7,115.3,36.7z"/>
	<path class="st7" d="M110.4,32.9c-0.4-0.4-1.1-0.4-1.5,0c-0.4,0.6-0.8,1.2-1,1.8c-0.4,1-0.6,2-0.6,3.1c0,2.2,0.8,4.1,2.2,5.6
		c0.4,0.4,1,0.4,1.4,0l0.1-0.1c0.5-0.5,0.4-1.2,0-1.7c-0.3-0.4-0.6-0.7-0.8-1.2c-0.4-0.8-0.6-1.7-0.6-2.6c0-1.2,0.4-2.3,1-3.2
		C110.9,34.1,110.9,33.5,110.4,32.9L110.4,32.9z M120.2,33c-0.4,0.4-0.4,1.1-0.1,1.6c0.2,0.3,0.4,0.7,0.6,1c0.3,0.7,0.4,1.4,0.4,2.2
		c0,1.4-0.5,2.7-1.4,3.7c-0.4,0.5-0.5,1.3,0,1.7l0.1,0.1c0.4,0.4,1,0.4,1.4,0c0.6-0.6,1.1-1.3,1.5-2.1c0.5-1.1,0.8-2.3,0.8-3.4
		c0-1.1-0.2-2.1-0.6-3.1c-0.3-0.6-0.6-1.2-1-1.8C121.4,32.5,120.7,32.5,120.2,33L120.2,33z"/>
	<path class="st7" d="M102.6,37.9c0-1.7,0.3-3.3,1-4.8c0.5-1.2,1.2-2.3,2-3.3c0.4-0.5,1.1-0.5,1.5,0l0.1,0.1c0.4,0.4,0.4,1.1,0,1.6
		c-0.6,0.8-1.1,1.6-1.5,2.5c-0.5,1.3-0.8,2.6-0.8,4c0,1.4,0.3,2.7,0.8,4c0.4,0.9,0.9,1.8,1.5,2.5c0.4,0.5,0.4,1.2,0,1.6l-0.1,0.1
		c-0.4,0.4-1.1,0.4-1.5,0c-0.8-1-1.5-2.1-2-3.3C103,41.2,102.6,39.5,102.6,37.9z M123.6,46.1c0.4,0.4,1.1,0.4,1.5,0
		c0.8-1,1.5-2.1,2-3.3c0.6-1.5,1-3.2,1-4.8c0-3.1-1.1-6-3-8.2c-0.4-0.5-1.1-0.5-1.5,0l-0.1,0.1c-0.4,0.4-0.4,1.1,0,1.6
		c0.6,0.8,1.1,1.6,1.5,2.5c0.5,1.3,0.8,2.6,0.8,4c0,1.4-0.3,2.7-0.8,4c-0.4,0.9-0.9,1.8-1.5,2.5C123.1,44.8,123.1,45.5,123.6,46.1
		L123.6,46.1z"/>
</g>
<g id="Layer_4" class="st0">
	
		<linearGradient id="SVGID_00000174579841532846098440000018148639186504856969_" gradientUnits="userSpaceOnUse" x1="290.0916" y1="145.1356" x2="259.1176" y2="158.9446" gradientTransform="matrix(0.7071 0.7071 0.7071 -0.7071 -186.5306 -48.2612)">
		<stop  offset="0" style="stop-color:#58C5CB"/>
		<stop  offset="0.2694" style="stop-color:#2CC2DF;stop-opacity:0"/>
		<stop  offset="0.6636" style="stop-color:#16BEE6;stop-opacity:0.44"/>
		<stop  offset="1" style="stop-color:#16BEE6"/>
	</linearGradient>
	
		<path style="display:inline;fill:#0E131C;stroke:url(#SVGID_00000174579841532846098440000018148639186504856969_);stroke-width:0.3632;" d="
		M119.6,15.2l19.5,19.5c2.3,2.3,2.3,6.1,0,8.5l-19.5,19.5c-2.3,2.3-6.1,2.3-8.5,0L91.6,43.2c-2.3-2.3-2.3-6.1,0-8.5l19.5-19.5
		C113.5,12.8,117.2,12.8,119.6,15.2z"/>
	<path class="st4" d="M122.8,37.3c0.4,0,0.7,0.1,1,0.4c0.3,0.3,0.4,0.6,0.5,1l0,0.1v4c0,1.2-0.4,2.3-1.2,3.1c-0.8,0.8-1.9,1.3-3,1.4
		l-0.2,0h-13c-0.3,0-0.6-0.1-0.8-0.2c-0.2-0.2-0.4-0.4-0.6-0.6c-0.1-0.3-0.2-0.5-0.1-0.8c0-0.3,0.1-0.5,0.3-0.8l0.1-0.1l3-3
		c0.3-0.3,0.6-0.4,1-0.4c0.4,0,0.8,0.1,1,0.4c0.3,0.3,0.5,0.6,0.5,1c0,0.4-0.1,0.8-0.3,1.1l-0.1,0.1l-0.4,0.4h9.4
		c0.4,0,0.7-0.1,1-0.4c0.3-0.3,0.4-0.6,0.5-1l0-0.1v-4c0-0.4,0.2-0.8,0.4-1.1C122,37.4,122.4,37.3,122.8,37.3z M122.8,30.3
		c0.3,0,0.6,0.1,0.8,0.2c0.2,0.2,0.4,0.4,0.6,0.6c0.1,0.3,0.2,0.5,0.1,0.8c0,0.3-0.1,0.5-0.3,0.8l-0.1,0.1l-3,3
		c-0.3,0.3-0.6,0.4-1,0.4c-0.4,0-0.8-0.1-1-0.4c-0.3-0.3-0.5-0.6-0.5-1c0-0.4,0.1-0.8,0.3-1.1l0.1-0.1l0.4-0.4h-9.4
		c-0.4,0-0.7,0.1-1,0.4c-0.3,0.3-0.4,0.6-0.5,1l0,0.1v4c0,0.4-0.1,0.8-0.4,1c-0.3,0.3-0.6,0.4-1,0.5c-0.4,0-0.8-0.1-1.1-0.4
		c-0.3-0.3-0.5-0.6-0.5-1l0-0.1v-4c0-1.2,0.4-2.3,1.2-3.1c0.8-0.8,1.9-1.3,3-1.4l0.2,0H122.8z"/>
	<path class="st9" d="M122.8,37.3c0.4,0,0.7,0.1,1,0.4c0.3,0.3,0.4,0.6,0.5,1l0,0.1v4c0,1.2-0.4,2.3-1.2,3.1c-0.8,0.8-1.9,1.3-3,1.4
		l-0.2,0h-13c-0.3,0-0.6-0.1-0.8-0.2c-0.2-0.2-0.4-0.4-0.6-0.6c-0.1-0.3-0.2-0.5-0.1-0.8c0-0.3,0.1-0.5,0.3-0.8l0.1-0.1l3-3
		c0.3-0.3,0.6-0.4,1-0.4c0.4,0,0.8,0.1,1,0.4c0.3,0.3,0.5,0.6,0.5,1c0,0.4-0.1,0.8-0.3,1.1l-0.1,0.1l-0.4,0.4h9.4
		c0.4,0,0.7-0.1,1-0.4c0.3-0.3,0.4-0.6,0.5-1l0-0.1v-4c0-0.4,0.2-0.8,0.4-1.1C122,37.4,122.4,37.3,122.8,37.3z M122.8,30.3
		c0.3,0,0.6,0.1,0.8,0.2c0.2,0.2,0.4,0.4,0.6,0.6c0.1,0.3,0.2,0.5,0.1,0.8c0,0.3-0.1,0.5-0.3,0.8l-0.1,0.1l-3,3
		c-0.3,0.3-0.6,0.4-1,0.4c-0.4,0-0.8-0.1-1-0.4c-0.3-0.3-0.5-0.6-0.5-1c0-0.4,0.1-0.8,0.3-1.1l0.1-0.1l0.4-0.4h-9.4
		c-0.4,0-0.7,0.1-1,0.4c-0.3,0.3-0.4,0.6-0.5,1l0,0.1v4c0,0.4-0.1,0.8-0.4,1c-0.3,0.3-0.6,0.4-1,0.5c-0.4,0-0.8-0.1-1.1-0.4
		c-0.3-0.3-0.5-0.6-0.5-1l0-0.1v-4c0-1.2,0.4-2.3,1.2-3.1c0.8-0.8,1.9-1.3,3-1.4l0.2,0H122.8z"/>
</g>
</svg>
